<svg xmlns="http://www.w3.org/2000/svg" version="1.1" width="200px" height="200px" style="shape-rendering:geometricPrecision; text-rendering:geometricPrecision; image-rendering:optimizeQuality; fill-rule:evenodd; clip-rule:evenodd" xmlns:xlink="http://www.w3.org/1999/xlink" viewBox="0 0 200 200">
  <g>
    <path style="opacity:0.99" fill="#d0c1d6" d="m123.41 21.5 5.45 5.73a79.32 79.32 0 0 0 -39.73 -4.82 74.07 74.07 0 0 0 -3 -3.18 82.86 82.86 0 0 1 37.27 2.27Z"/>
  </g>
  <g>
    <path style="opacity:0.989" fill="#d7c6da" d="M86.14 19.23a74.07 74.07 0 0 1 3 3.18 94.3 94.3 0 0 0 -8.82 1.82 57.33 57.33 0 0 0 -7.45 2.36 57.09 57.09 0 0 0 -7.45 3.18l-2.91 1.45a54.19 54.19 0 0 1 -2.55 -2.73 81.24 81.24 0 0 1 26.18 -9.27Z"/>
  </g>
  <g>
    <path style="opacity:1" fill="#fefdfe" d="M128.86 27.23a78.9 78.9 0 0 1 37.95 32.09 78.07 78.07 0 0 1 11.32 37 83.14 83.14 0 0 1 -1.18 17.82 92.3 92.3 0 0 1 -2.27 8.91 6601.3 6601.3 0 0 1 -18.23 -19.09 0.52 0.52 0 0 1 -0.05 -0.27c1.26 -7.28 -0.99 -13.2 -6.73 -17.77a17.36 17.36 0 0 0 -13.45 -3.05 14.37 14.37 0 0 0 -1.27 -1.45l0.55 -0.18a40.82 40.82 0 0 0 -17 -16.91c0.01 -0.07 0 -0.13 -0.05 -0.18a9659.44 9659.44 0 0 1 -38.14 -39.91 94.3 94.3 0 0 1 8.82 -1.82 79.33 79.33 0 0 1 39.73 4.82Z"/>
  </g>
  <g>
    <path style="opacity:0.986" fill="#cdbed3" d="M123.41 21.5a81.71 81.71 0 0 1 42.86 30.36 81.46 81.46 0 0 1 15.5 48.18l-3.64 -3.73a77.96 77.96 0 0 0 -11.32 -37 78.9 78.9 0 0 0 -37.95 -32.09l-5.45 -5.73Z"/>
  </g>
  <g>
    <path style="opacity:1" fill="#f9f7fa" d="M80.32 24.23a9659.44 9659.44 0 0 0 38.14 39.91 0.23 0.23 0 0 1 0.05 0.18 40.25 40.25 0 0 0 -8.27 -3.18 76.22 76.22 0 0 1 -2.14 -2.27c-0.04 0.02 -0.05 0.05 -0.05 0.09a9.63 9.63 0 0 0 -4.36 -2 10 10 0 0 0 -1.86 -4.18c-1.05 -1.07 -2.19 -1.18 -3.41 -0.32a2.31 2.31 0 0 0 -0.36 0.41 2 2 0 0 1 -0.68 -0.55 9837.87 9837.87 0 0 0 -24.5 -25.73 57.33 57.33 0 0 1 7.45 -2.36Z"/>
  </g>
  <g>
    <path style="opacity:1" fill="#f7f5f8" d="M72.86 26.59a9837.87 9837.87 0 0 1 24.5 25.73 2 2 0 0 0 0.68 0.55 8.27 8.27 0 0 0 -1.73 4.09c-1.3 0.24 -2.51 0.69 -3.64 1.36a8.9 8.9 0 0 1 -1.41 -1.27 5044.76 5044.76 0 0 0 -24.91 -26.09 16.85 16.85 0 0 1 -0.95 -1.18 57.09 57.09 0 0 1 7.45 -3.18Z"/>
  </g>
  <g>
    <path style="opacity:0.987" fill="#ddccdf" d="M59.95 28.5a54.19 54.19 0 0 0 2.55 2.73 113.43 113.43 0 0 0 -4.64 2.82 62.71 62.71 0 0 0 -5.27 3.73c-3.22 2.4 -6.22 5.06 -9 8a20.86 20.86 0 0 1 -1.64 1.64 50.39 50.39 0 0 0 -2.55 -2.55 80.96 80.96 0 0 1 20.55 -16.36Z"/>
  </g>
  <g>
    <path style="opacity:1" fill="#f4f1f5" d="M65.41 29.77a16.85 16.85 0 0 0 0.95 1.18 5044.76 5044.76 0 0 1 24.91 26.09 8.9 8.9 0 0 0 1.41 1.27 3.26 3.26 0 0 0 -1.55 2.23 2.03 2.03 0 0 0 0.14 0.68l0.5 0.5a60.32 60.32 0 0 0 2.82 1.36 5.52 5.52 0 0 1 2.59 2.59c0.29 1.01 0.59 2.01 0.91 3a1.78 1.78 0 0 0 1.77 0.73c0.93 0.12 1.58 -0.25 1.95 -1.09l0.91 -2.73a5.72 5.72 0 0 1 2.41 -2.41 92.95 92.95 0 0 0 3 -1.45c0.56 -0.39 0.75 -0.92 0.59 -1.59a5.68 5.68 0 0 0 -0.68 -1.18c-0.01 -0.04 0.01 -0.07 0.05 -0.09a76.22 76.22 0 0 0 2.14 2.27 0.72 0.72 0 0 0 -0.64 0 2.13 2.13 0 0 1 -0.82 1.23 21.11 21.11 0 0 1 -2.82 1.36 5.52 5.52 0 0 0 -3.14 4.5c-0.68 1.79 -1.97 2.47 -3.86 2.05a2.59 2.59 0 0 1 -1.86 -1.68 49.4 49.4 0 0 1 -0.64 -2.36 4.58 4.58 0 0 0 -2.05 -2.23 56.95 56.95 0 0 1 -3.27 -1.64 2.13 2.13 0 0 1 -0.82 -1.23 2.63 2.63 0 0 0 -1.27 0.14 102.89 102.89 0 0 0 -4 1.32L57.86 34.04a113.43 113.43 0 0 1 4.64 -2.82l2.91 -1.45Z"/>
  </g>
  <g>
    <path style="opacity:1" fill="#f2eef4" d="M57.86 34.05 85.04 62.6a65.08 65.08 0 0 0 -5.82 2.91 14.4 14.4 0 0 1 -1.77 -1.64 10124.46 10124.46 0 0 0 -24.86 -26.09 62.71 62.71 0 0 1 5.27 -3.73Z"/>
  </g>
  <g>
    <path style="opacity:1" fill="#efeaf1" d="M52.59 37.77a10124.46 10124.46 0 0 1 24.86 26.09c0.55 0.6 1.14 1.15 1.77 1.64 -3.48 2.15 -6.6 4.76 -9.36 7.82a4.1 4.1 0 0 1 -0.95 -0.82 5080.8 5080.8 0 0 0 -25 -26.18 2.74 2.74 0 0 1 -0.32 -0.55c2.78 -2.94 5.78 -5.6 9 -8Z"/>
  </g>
  <g>
    <path style="opacity:0.987" fill="#e3d1e4" d="M39.41 44.86a50.39 50.39 0 0 1 2.55 2.55 88.57 88.57 0 0 0 -4.27 5.27 73.31 73.31 0 0 0 -6.09 9.27 73.61 73.61 0 0 0 -4.45 9.36 0.22 0.22 0 0 0 -0.14 0.09 113.06 113.06 0 0 1 -2.68 -2.73 78.86 78.86 0 0 1 15.09 -23.82Z"/>
  </g>
  <g>
    <path style="opacity:1" fill="#ebe6ee" d="M43.59 45.77a2.74 2.74 0 0 0 0.32 0.55 5080.8 5080.8 0 0 1 25 26.18 4.1 4.1 0 0 0 0.95 0.82 46.87 46.87 0 0 0 -5.27 7.55 5906.39 5906.39 0 0 1 -26.91 -28.18 88.57 88.57 0 0 1 4.27 -5.27 20.86 20.86 0 0 0 1.64 -1.64Z"/>
  </g>
  <g>
    <path style="opacity:1" fill="#f02106" d="M108.05 58.95a5.68 5.68 0 0 1 0.68 1.18 1.4 1.4 0 0 1 -0.59 1.59 92.95 92.95 0 0 1 -3 1.45 5.72 5.72 0 0 0 -2.41 2.41l-0.91 2.73c-0.37 0.84 -1.02 1.21 -1.95 1.09a1.77 1.77 0 0 1 -1.77 -0.73 109.18 109.18 0 0 1 -0.91 -3 5.52 5.52 0 0 0 -2.59 -2.59 60.32 60.32 0 0 1 -2.82 -1.36l-0.5 -0.5a2.03 2.03 0 0 1 -0.14 -0.68 3.23 3.23 0 0 1 1.55 -2.23c1.13 -0.67 2.34 -1.12 3.64 -1.36a8.27 8.27 0 0 1 1.73 -4.09 2.31 2.31 0 0 1 0.36 -0.41c1.22 -0.86 2.36 -0.75 3.41 0.32a10 10 0 0 1 1.86 4.18c1.63 0.3 3.09 0.97 4.36 2Z"/>
  </g>
  <g>
    <path style="opacity:1" fill="#e9e2eb" d="M37.68 52.68a5906.39 5906.39 0 0 0 26.91 28.18 1.68 1.68 0 0 1 -0.18 0.32 1.4 1.4 0 0 0 0.64 0.18 383.98 383.98 0 0 0 13.91 1.5c-0.04 -0.01 -0.07 0.01 -0.09 0.05a49.1 49.1 0 0 0 1.82 1.77 256.63 256.63 0 0 1 -17.91 -1.95 17.94 17.94 0 0 0 -10 1.59A6263.46 6263.46 0 0 0 33.1 63.68a38.96 38.96 0 0 1 -1.5 -1.73c1.81 -3.25 3.84 -6.34 6.09 -9.27Z"/>
  </g>
  <g>
    <path style="opacity:1" fill="#f02005" d="M110.23 61.14a40.25 40.25 0 0 1 8.27 3.18 40.82 40.82 0 0 1 17 16.91 17.94 17.94 0 0 0 -0.55 0.18 325.66 325.66 0 0 1 -19 1.82 417.54 417.54 0 0 1 -17 0.45 309.31 309.31 0 0 1 -20 -0.82 383.98 383.98 0 0 1 -13.91 -1.5 1.43 1.43 0 0 1 -0.64 -0.18 1.68 1.68 0 0 0 0.18 -0.32 46.87 46.87 0 0 1 5.27 -7.55 43.2 43.2 0 0 1 9.36 -7.82 65.08 65.08 0 0 1 5.82 -2.91 102.89 102.89 0 0 1 4 -1.32 2.77 2.77 0 0 1 1.27 -0.14c0.12 0.51 0.4 0.92 0.82 1.23a56.95 56.95 0 0 0 3.27 1.64 4.59 4.59 0 0 1 2.05 2.23 49.4 49.4 0 0 0 0.64 2.36 2.59 2.59 0 0 0 1.86 1.68c1.9 0.42 3.18 -0.26 3.86 -2.05a5.5 5.5 0 0 1 3.14 -4.5 21.11 21.11 0 0 0 2.82 -1.36 2.13 2.13 0 0 0 0.82 -1.23 0.72 0.72 0 0 1 0.64 0Z"/>
  </g>
  <g>
    <path style="opacity:1" fill="#e5dee8" d="M31.59 61.95a38.96 38.96 0 0 0 1.5 1.73 6263.46 6263.46 0 0 1 19.68 20.64c-3.32 1.75 -5.9 4.26 -7.73 7.55L26.68 72.69a17.98 17.98 0 0 1 0.45 -1.36 73.61 73.61 0 0 1 4.45 -9.36Z"/>
  </g>
  <g>
    <path style="opacity:1" fill="#e2d9e5" d="m26.68 72.68 18.36 19.18a18.05 18.05 0 0 0 -1.09 13.55 7.9 7.9 0 0 1 -1.32 -1.18L25.27 85.96a18.29 18.29 0 0 0 -1.95 -1.82c0.76 -3.95 1.88 -7.76 3.36 -11.45Z"/>
  </g>
  <g>
    <path style="opacity:0.99" fill="#ead7e8" d="M24.32 68.68a113.06 113.06 0 0 0 2.68 2.73 0.2 0.2 0 0 1 0.14 -0.09 17.98 17.98 0 0 0 -0.45 1.36 61.72 61.72 0 0 0 -3.36 11.45 72.39 72.39 0 0 0 -1.36 9.55 62.92 62.92 0 0 0 -0.09 10.27v1.73l-3.73 -3.82a79.98 79.98 0 0 1 6.18 -33.18Z"/>
  </g>
  <g>
    <path style="opacity:1" fill="#f8f2f5" d="M134.95 81.41a14.37 14.37 0 0 1 1.27 1.45 211.5 211.5 0 0 1 -18.45 1.91 33.59 33.59 0 0 0 -1.45 -1.5 0.77 0.77 0 0 0 -0.36 -0.05 325.66 325.66 0 0 0 19 -1.82Z"/>
  </g>
  <g>
    <path style="opacity:1" fill="#f02005" d="M80.68 84.68a288.95 288.95 0 0 0 17.27 0.64 284.9 284.9 0 0 0 19.82 -0.55 211.5 211.5 0 0 0 18.45 -1.91c4.92 -0.84 9.4 0.17 13.45 3.05 5.74 4.57 7.98 10.5 6.73 17.77a19.44 19.44 0 0 1 -3.27 7 18.62 18.62 0 0 1 -5.91 4.82c-3.13 1.52 -6.43 2.1 -9.91 1.73a167.39 167.39 0 0 1 -0.95 -0.18l-1.45 2.73a2479 2479 0 0 1 -1.59 2.64 45.69 45.69 0 0 1 -6.27 7.23 18.6 18.6 0 0 0 -1.91 1.68 45.9 45.9 0 0 1 -7.73 4.82 35.6 35.6 0 0 0 -1.77 0.82 4.08 4.08 0 0 0 -1.23 -1.32l-4.91 -2.36a9.8 9.8 0 0 1 -4.32 -4.5 73.3 73.3 0 0 1 -1.18 -3.82c-0.61 -1.78 -1.87 -2.66 -3.77 -2.64 -1.82 -0.11 -3.11 0.65 -3.86 2.27a27.49 27.49 0 0 0 -0.86 3.45 8.21 8.21 0 0 1 -3.09 4.32 28.83 28.83 0 0 1 -1.91 1.18 78.14 78.14 0 0 0 -4.55 2.18 4.58 4.58 0 0 0 -1.18 1.41l-1.36 -0.55a41.22 41.22 0 0 1 -19.86 -19.55c-3.18 0.57 -6.28 0.3 -9.32 -0.82a17.79 17.79 0 0 1 -10.27 -10.82 18.06 18.06 0 0 1 1.09 -13.55c1.83 -3.28 4.4 -5.8 7.73 -7.55a17.94 17.94 0 0 1 10 -1.59 256.63 256.63 0 0 0 17.91 1.95Z"/>
  </g>
  <g>
    <path style="opacity:1" fill="#f0e7ed" d="M78.95 82.86a309.31 309.31 0 0 0 20 0.82c-0.82 -0.02 -1.64 0 -2.45 0.05a36.03 36.03 0 0 0 1.45 1.59 288.95 288.95 0 0 1 -17.27 -0.64 49.1 49.1 0 0 1 -1.82 -1.77c0.02 -0.04 0.05 -0.05 0.09 -0.05Z"/>
  </g>
  <g>
    <path style="opacity:1" fill="#f4edf1" d="M115.95 83.23a0.77 0.77 0 0 1 0.36 0.05 33.59 33.59 0 0 1 1.45 1.5 287.87 287.87 0 0 1 -19.82 0.55 36.03 36.03 0 0 1 -1.45 -1.59 33.5 33.5 0 0 1 2.45 -0.05 417.54 417.54 0 0 0 17 -0.45Z"/>
  </g>
  <g>
    <path style="opacity:1" fill="#dfd6e3" d="M23.32 84.14a18.29 18.29 0 0 1 1.95 1.82l17.36 18.27a7.47 7.47 0 0 0 1.32 1.18c1.84 5.11 5.26 8.72 10.27 10.82 -0.04 -0.01 -0.07 0.01 -0.09 0.05a54935.13 54935.13 0 0 1 58.18 60.95 69.04 69.04 0 0 1 -9.73 0.91 53576.1 53576.1 0 0 0 -80.64 -84.45 72.39 72.39 0 0 1 1.36 -9.55Z"/>
  </g>
  <g>
    <path style="opacity:1" fill="#efebf1" d="M101.32 88.77a16.46 16.46 0 0 1 1.36 1.55c-5.58 0.02 -11.15 0 -16.73 -0.05l-1.45 -1.45c5.61 -0.05 11.21 -0.06 16.82 -0.05Z"/>
  </g>
  <g>
    <path style="opacity:1" fill="#0e202f" d="M125.23 90.41a3.49 3.49 0 0 1 2.95 2.45c0.06 4.67 0.06 9.33 0 14a4.56 4.56 0 0 0 -0.14 0.64 3.48 3.48 0 0 1 -3.18 2c-16.88 0.02 -33.76 0 -50.64 -0.05a3.24 3.24 0 0 1 -2.5 -2.59 544.47 544.47 0 0 1 0 -14 3.36 3.36 0 0 1 2.5 -2.41c17 -0.05 34 -0.06 51 -0.05Z"/>
  </g>
  <g>
    <path style="opacity:1" fill="#ddd3e1" d="M21.95 93.68a53576.1 53576.1 0 0 1 80.64 84.45 60.65 60.65 0 0 1 -10.27 -0.36c0.07 0.01 0.13 0 0.18 -0.05a40405.49 40405.49 0 0 0 -70.59 -73.95 0.22 0.22 0 0 0 -0.05 0.18 62.91 62.91 0 0 1 0.09 -10.27Z"/>
  </g>
  <g>
    <path style="opacity:1" fill="#037d46" d="M83.77 95.05c3.1 -0.3 5.09 1.03 5.95 4 0.25 3.01 -1.07 4.93 -3.95 5.77a4.94 4.94 0 0 1 -4.95 -1.95c-1.54 -2.64 -1.16 -4.96 1.14 -6.95a7.96 7.96 0 0 1 1.82 -0.86Z"/>
  </g>
  <g>
    <path style="opacity:1" fill="#037d46" d="M114.05 95.05c2.94 -0.28 4.9 0.96 5.86 3.73 0.4 3.11 -0.88 5.12 -3.86 6.05 -2.87 0.31 -4.8 -0.88 -5.77 -3.59 -0.44 -3.11 0.81 -5.17 3.77 -6.18Z"/>
  </g>
  <g>
    <path style="opacity:1" fill="#f2eff4" d="M101.32 88.77h24.09c2.23 0.34 3.7 1.58 4.41 3.73 0.15 4.78 0.18 9.57 0.09 14.36a6.54 6.54 0 0 1 -0.68 1.91l-1.18 -1.27a4.89 4.89 0 0 1 0.14 -0.64c0.06 -4.67 0.06 -9.33 0 -14a3.48 3.48 0 0 0 -2.95 -2.45c-7.5 -0.09 -15.01 -0.12 -22.55 -0.09a16.46 16.46 0 0 0 -1.36 -1.55Z"/>
  </g>
  <g>
    <path style="opacity:0.991" fill="#d2c3d7" d="m178.14 96.32 3.64 3.73a77.27 77.27 0 0 1 -1.82 17.36 18.91 18.91 0 0 1 -3 -3.27c1.03 -5.9 1.43 -11.84 1.18 -17.82Z"/>
  </g>
  <g>
    <path style="opacity:1" fill="#06fc8c" d="M84.05 96.77c1.83 -0.21 3.12 0.52 3.86 2.18 0.39 1.9 -0.29 3.25 -2.05 4.05a3.23 3.23 0 0 1 -3.5 -0.95c-1.14 -1.65 -1 -3.18 0.41 -4.59 0.42 -0.25 0.84 -0.48 1.27 -0.68Z"/>
  </g>
  <g>
    <path style="opacity:1" fill="#06fb8c" d="M114.32 96.77c2.59 -0.15 3.91 1.06 3.95 3.64 -0.53 2.04 -1.85 2.94 -3.95 2.68 -1.8 -0.61 -2.6 -1.87 -2.41 -3.77a3.55 3.55 0 0 1 2.41 -2.55Z"/>
  </g>
  <g>
    <path style="opacity:1" fill="#e2d5e0" d="M55.41 90.32a11.2 11.2 0 0 1 4.82 0.86c0.47 0.19 0.9 0.45 1.27 0.77a38.27 38.27 0 0 0 -0.68 11.55 40.3 40.3 0 0 0 0.59 4.27l-0.09 0.36c-3.85 2.12 -7.54 1.9 -11.09 -0.68 -3.67 -3.38 -4.5 -7.37 -2.5 -11.95 1.72 -2.99 4.28 -4.71 7.68 -5.18Z"/>
  </g>
  <g>
    <path style="opacity:1" fill="#711003" d="M55.32 91.14c1.78 -0.08 3.48 0.27 5.09 1.05a0.62 0.62 0 0 1 0.09 0.27c-0.6 3.41 -0.8 6.85 -0.59 10.32l0.55 4.91c-3.59 1.75 -6.94 1.37 -10.05 -1.14 -2.8 -2.81 -3.57 -6.1 -2.32 -9.86a9.2 9.2 0 0 1 7.23 -5.55Z"/>
  </g>
  <g>
    <path style="opacity:1" fill="#dbd0e0" d="M92.32 177.77a50.09 50.09 0 0 1 -1.73 -0.09 45.83 45.83 0 0 1 -4.27 -0.73c0.04 0.01 0.07 -0.01 0.09 -0.05l-63.95 -67.05a0.22 0.22 0 0 0 -0.05 0.18 131.25 131.25 0 0 1 -0.55 -4.36v-1.73c-0.01 -0.07 0 -0.13 0.05 -0.18a40405.49 40405.49 0 0 1 70.59 73.95 0.23 0.23 0 0 1 -0.18 0.05Z"/>
  </g>
  <g>
    <path style="opacity:1" fill="#f7f0f2" d="M142.77 90.32c5.03 -0.04 8.41 2.29 10.14 7 1 4.66 -0.47 8.31 -4.41 10.95a9.56 9.56 0 0 1 -9.91 -0.14l-0.09 -0.36c0.72 -3.85 0.92 -7.73 0.59 -11.64a27.98 27.98 0 0 0 -0.68 -4.18 7.39 7.39 0 0 1 1.91 -1.05c0.82 -0.25 1.64 -0.45 2.45 -0.59Z"/>
  </g>
  <g>
    <path style="opacity:1" fill="#711003" d="M142.68 91.14c4.5 -0.14 7.61 1.86 9.32 6a9.07 9.07 0 0 1 -2.5 9.41c-3.08 2.48 -6.42 2.88 -10 1.18a0.85 0.85 0 0 1 -0.09 -0.32A45.77 45.77 0 0 0 140 96.86c-0.15 -1.55 -0.33 -3.1 -0.55 -4.64 1.03 -0.54 2.1 -0.9 3.23 -1.09Z"/>
  </g>
  <g>
    <path style="opacity:1" fill="#f9f7fa" d="M156.41 103.68c-0.01 0.1 0 0.19 0.05 0.27 6.06 6.38 12.14 12.75 18.23 19.09a75.87 75.87 0 0 1 -2.64 7.36 3922.07 3922.07 0 0 1 -18.91 -19.73c1.56 -2.12 2.65 -4.45 3.27 -7Z"/>
  </g>
  <g>
    <path style="opacity:1" fill="#e1d7df" d="M125.41 88.77h-24.09c-5.61 -0.02 -11.21 0 -16.82 0.05l1.45 1.45a1555 1555 0 0 0 16.73 0.05c7.53 -0.03 15.05 0 22.55 0.09 -17 -0.02 -34 0 -51 0.05a3.36 3.36 0 0 0 -2.5 2.41c-0.06 4.67 -0.06 9.33 0 14a3.24 3.24 0 0 0 2.5 2.59c16.88 0.05 33.76 0.06 50.64 0.05 -10.92 0.08 -21.86 0.12 -32.82 0.14a24.49 24.49 0 0 0 1.36 1.45c10.67 0.05 21.33 0.06 32 0.05 -8.5 0.06 -17.02 0.09 -25.55 0.09 -8.67 0.01 -17.34 -0.03 -26 -0.14A5 5 0 0 1 70 106.87a530.56 530.56 0 0 1 0 -13.82 5.02 5.02 0 0 1 3.86 -4.23c8.66 -0.11 17.33 -0.15 26 -0.14 8.53 0 17.05 0.03 25.55 0.09Z"/>
  </g>
  <g>
    <path style="opacity:1" fill="#eeeaf0" d="m128.05 107.5 1.18 1.27a5 5 0 0 1 -3.82 2.36c-10.67 0.02 -21.33 0 -32 -0.05a24.49 24.49 0 0 1 -1.36 -1.45c10.95 -0.02 21.89 -0.06 32.82 -0.14a3.48 3.48 0 0 0 3.18 -2Z"/>
  </g>
  <g>
    <path style="opacity:1" fill="#d9cfdf" d="M86.32 176.95a46.16 46.16 0 0 1 -6.64 -1.45c0.04 0.01 0.07 -0.01 0.09 -0.05a25722.74 25722.74 0 0 1 -56.13 -58.77c-0.04 0.02 -0.05 0.05 -0.05 0.09a48.82 48.82 0 0 1 -1.18 -6.73c-0.01 -0.07 0 -0.13 0.05 -0.18l63.95 67.05c-0.02 0.04 -0.05 0.05 -0.09 0.05Z"/>
  </g>
  <g>
    <path style="opacity:1" fill="#f7f5f8" d="M153.14 110.68c6.28 6.6 12.59 13.17 18.91 19.73a83.1 83.1 0 0 1 -3.64 7.36c-6.54 -6.8 -13.07 -13.62 -19.59 -20.45a44.99 44.99 0 0 1 -1.59 -1.82c2.3 -1.2 4.27 -2.8 5.91 -4.82Z"/>
  </g>
  <g>
    <path style="opacity:0.989" fill="#d7c6da" d="M176.95 114.14c0.86 1.2 1.86 2.29 3 3.27a82.66 82.66 0 0 1 -10.45 25.82 54.21 54.21 0 0 1 -2.64 -2.64c0.49 -0.95 1.01 -1.89 1.55 -2.82a83.1 83.1 0 0 0 3.64 -7.36 75.87 75.87 0 0 0 2.64 -7.36c0.91 -2.94 1.67 -5.91 2.27 -8.91Z"/>
  </g>
  <g>
    <path style="opacity:1" fill="#f4f1f5" d="M147.23 115.5c0.51 0.62 1.04 1.22 1.59 1.82 6.52 6.84 13.05 13.65 19.59 20.45a77.25 77.25 0 0 0 -1.55 2.82c-0.98 1.5 -1.98 2.98 -3 4.45a5811.1 5811.1 0 0 1 -26.55 -27.82c3.47 0.37 6.78 -0.2 9.91 -1.73Z"/>
  </g>
  <g>
    <path style="opacity:1" fill="#e1d8e5" d="M54.23 116.23c3.03 1.11 6.14 1.39 9.32 0.82a41.22 41.22 0 0 0 19.86 19.55c-0.04 -0.01 -0.07 0.01 -0.09 0.05 12.37 12.88 24.7 25.79 37 38.73a0.9 0.9 0 0 0 0.36 0.05 68.4 68.4 0 0 1 -8.36 1.82 54935.13 54935.13 0 0 0 -58.18 -60.95c0.02 -0.04 0.05 -0.05 0.09 -0.05Z"/>
  </g>
  <g>
    <path style="opacity:1" fill="#d7ccdd" d="M79.68 175.5c-19.55 -5.5 -34.84 -16.75 -45.86 -33.73a76.48 76.48 0 0 1 -10.23 -25c-0.01 -0.04 0.01 -0.07 0.05 -0.09a25722.74 25722.74 0 0 0 56.13 58.77c-0.02 0.04 -0.05 0.05 -0.09 0.05Z"/>
  </g>
  <g>
    <path style="opacity:1" fill="#f2eef4" d="M137.32 117.23c8.82 9.3 17.67 18.58 26.55 27.82a54.03 54.03 0 0 1 -4 5.09l-26.55 -27.73a2479 2479 0 0 0 1.59 -2.64l1.45 -2.73 0.95 0.18Z"/>
  </g>
  <g>
    <path style="opacity:1" fill="#e9e2eb" d="M117.41 136.14a5965.9 5965.9 0 0 0 26.91 28.18 67 67 0 0 1 -9.45 5.64 0.41 0.41 0 0 1 -0.27 -0.05 4486.59 4486.59 0 0 1 -28.82 -30.23 41.4 41.4 0 0 0 8.82 -2.32c0.15 -0.07 0.2 -0.17 0.14 -0.32a5.21 5.21 0 0 0 -0.86 -0.77 73.27 73.27 0 0 1 -5.36 -2.64 9.72 9.72 0 0 1 -4.05 -4.5c-0.5 -1.55 -1.02 -3.1 -1.55 -4.64a3.04 3.04 0 0 0 -1.32 -1.14 10.07 10.07 0 0 0 -2.55 -0.09 2.5 2.5 0 0 0 -1.95 1.68c-0.3 1.25 -0.62 2.49 -0.95 3.73a3.23 3.23 0 0 1 -0.64 -0.64c0.21 -1.17 0.5 -2.32 0.86 -3.45a3.68 3.68 0 0 1 3.86 -2.27c1.9 -0.03 3.16 0.85 3.77 2.64 0.36 1.29 0.75 2.56 1.18 3.82a9.7 9.7 0 0 0 4.32 4.5l4.91 2.36c0.5 0.35 0.91 0.79 1.23 1.32a46.6 46.6 0 0 1 1.77 -0.82Z"/>
  </g>
  <g>
    <path style="opacity:1" fill="#efeaf1" d="m133.32 122.41 26.55 27.73a65.3 65.3 0 0 1 -8.55 8.73c0.01 -0.07 0 -0.13 -0.05 -0.18a3683.64 3683.64 0 0 1 -26.14 -27.36c0.6 -0.6 1.23 -1.16 1.91 -1.68 2.36 -2.2 4.45 -4.61 6.27 -7.23Z"/>
  </g>
  <g>
    <path style="opacity:1" fill="#f02106" d="M105.77 139.68a40.53 40.53 0 0 1 -15.55 -0.73 29.73 29.73 0 0 1 -4.64 -1.55 2.65 2.65 0 0 1 1.18 -1.23 98.14 98.14 0 0 0 5.09 -2.45 9.39 9.39 0 0 0 4.27 -5.05c0.34 -1.24 0.65 -2.48 0.95 -3.73a2.5 2.5 0 0 1 1.95 -1.68 9.91 9.91 0 0 1 2.55 0.09 3.04 3.04 0 0 1 1.32 1.14c0.53 1.54 1.04 3.08 1.55 4.64a9.72 9.72 0 0 0 4.05 4.5 73.27 73.27 0 0 0 5.36 2.64c0.31 0.22 0.6 0.48 0.86 0.77 0.06 0.15 0.01 0.25 -0.14 0.32a41.08 41.08 0 0 1 -8.82 2.32Z"/>
  </g>
  <g>
    <path style="opacity:0.985" fill="#f0dced" d="m18.14 101.86 3.73 3.82c0.16 1.47 0.34 2.92 0.55 4.36 0.24 2.28 0.63 4.52 1.18 6.73a76.48 76.48 0 0 0 10.23 25c11.02 16.98 26.31 28.22 45.86 33.73a46.16 46.16 0 0 0 6.64 1.45c1.4 0.31 2.83 0.55 4.27 0.73l3.64 3.91c-18.36 -1.39 -34.45 -8.08 -48.27 -20.05 -15.3 -13.68 -24.38 -30.76 -27.23 -51.23a77.06 77.06 0 0 1 -0.59 -8.45Z"/>
  </g>
  <g>
    <path style="opacity:1" fill="#ebe6ee" d="M125.14 131.32a3683.64 3683.64 0 0 0 26.14 27.36 0.23 0.23 0 0 1 0.05 0.18l-1.55 1.45a136.7 136.7 0 0 0 -3.36 2.59 19.61 19.61 0 0 1 -2.09 1.41 5965.9 5965.9 0 0 1 -26.91 -28.18 45.9 45.9 0 0 0 7.73 -4.82Z"/>
  </g>
  <g>
    <path style="opacity:1" fill="#e3dbe6" d="M95.5 128.05a3.23 3.23 0 0 0 0.64 0.64 9.5 9.5 0 0 1 -4.27 5.05 98.14 98.14 0 0 1 -5.09 2.45 2.56 2.56 0 0 0 -1.18 1.23c1.51 0.64 3.06 1.16 4.64 1.55 -0.07 -0.01 -0.13 0 -0.18 0.05 11.26 11.82 22.53 23.62 33.82 35.41a107 107 0 0 1 -3.18 1 0.74 0.74 0 0 1 -0.36 -0.05c-12.3 -12.94 -24.63 -25.85 -37 -38.73 0.02 -0.04 0.05 -0.05 0.09 -0.05l1.36 0.55a4.58 4.58 0 0 1 1.18 -1.41 78.14 78.14 0 0 1 4.55 -2.18c0.65 -0.37 1.29 -0.77 1.91 -1.18a8.21 8.21 0 0 0 3.09 -4.32Z"/>
  </g>
  <g>
    <path style="opacity:1" fill="#e5dee8" d="M90.23 138.95a40.53 40.53 0 0 0 15.55 0.73 4486.59 4486.59 0 0 0 28.82 30.23 0.52 0.52 0 0 0 0.27 0.05 69.43 69.43 0 0 1 -9.82 4.09 6.66 6.66 0 0 1 -1.18 0.36A18933.61 18933.61 0 0 1 90.05 139a0.23 0.23 0 0 1 0.18 -0.05Z"/>
  </g>
  <g>
    <path style="opacity:0.987" fill="#ddccdf" d="M166.86 140.59c0.85 0.91 1.72 1.79 2.64 2.64a83.75 83.75 0 0 1 -17.27 19.73 50.07 50.07 0 0 1 -2.45 -2.64l1.55 -1.45c3.13 -2.64 5.98 -5.55 8.55 -8.73a54.03 54.03 0 0 0 4 -5.09c1.02 -1.47 2.02 -2.96 3 -4.45Z"/>
  </g>
  <g>
    <path style="opacity:0.987" fill="#e3d1e4" d="M149.77 160.32c0.78 0.91 1.6 1.78 2.45 2.64a80.43 80.43 0 0 1 -24.45 14 62 62 0 0 1 -2.73 -2.91 69.43 69.43 0 0 0 9.82 -4.09 67 67 0 0 0 9.45 -5.64c0.73 -0.42 1.42 -0.89 2.09 -1.41 1.11 -0.89 2.23 -1.75 3.36 -2.59Z"/>
  </g>
  <g>
    <path style="opacity:0.991" fill="#ead7e8" d="M125.05 174.05a62 62 0 0 0 2.73 2.91 80.59 80.59 0 0 1 -33.55 4.64l-3.64 -3.91c0.58 0.04 1.15 0.07 1.73 0.09 3.4 0.41 6.83 0.53 10.27 0.36a68.9 68.9 0 0 0 9.73 -0.91 67.24 67.24 0 0 0 11.54 -2.82 6.72 6.72 0 0 0 1.18 -0.36Z"/>
  </g>
</svg>
