<?xml version="1.0" encoding="UTF-8"?>
<svg xmlns="http://www.w3.org/2000/svg" xmlns:xlink="http://www.w3.org/1999/xlink" width="200px" height="200px" viewBox="0 0 200 200" version="1.1">
<defs>
<filter id="alpha" filterUnits="objectBoundingBox" x="0%" y="0%" width="100%" height="100%">
  <feColorMatrix type="matrix" in="SourceGraphic" values="0 0 0 0 1 0 0 0 0 1 0 0 0 0 1 0 0 0 1 0"/>
</filter>
<mask id="mask0">
  <g filter="url(#alpha)">
<rect x="0" y="0" width="200" height="200" style="fill:rgb(0%,0%,0%);fill-opacity:0.988235;stroke:none;"/>
  </g>
</mask>
<clipPath id="clip1">
  <rect x="0" y="0" width="200" height="200"/>
</clipPath>
<g id="surface5" clip-path="url(#clip1)">
<path style=" stroke:none;fill-rule:evenodd;fill:rgb(81.568627%,75.686275%,83.921569%);fill-opacity:1;" d="M 123.410156 21.5 C 125.226562 23.410156 127.046875 25.316406 128.863281 27.226562 C 116.039062 22.226562 102.796875 20.621094 89.136719 22.410156 C 88.167969 21.320312 87.167969 20.261719 86.136719 19.226562 C 98.738281 17.152344 111.164062 17.90625 123.410156 21.5 Z M 123.410156 21.5 "/>
</g>
<mask id="mask1">
  <g filter="url(#alpha)">
<rect x="0" y="0" width="200" height="200" style="fill:rgb(0%,0%,0%);fill-opacity:0.988235;stroke:none;"/>
  </g>
</mask>
<clipPath id="clip2">
  <rect x="0" y="0" width="200" height="200"/>
</clipPath>
<g id="surface8" clip-path="url(#clip2)">
<path style=" stroke:none;fill-rule:evenodd;fill:rgb(84.313725%,77.647059%,85.490196%);fill-opacity:1;" d="M 86.136719 19.226562 C 87.167969 20.261719 88.167969 21.320312 89.136719 22.410156 C 86.167969 22.875 83.226562 23.480469 80.316406 24.226562 C 77.769531 24.847656 75.285156 25.636719 72.863281 26.589844 C 70.304688 27.472656 67.820312 28.535156 65.410156 29.773438 C 64.4375 30.257812 63.46875 30.742188 62.5 31.226562 C 61.621094 30.347656 60.773438 29.4375 59.953125 28.5 C 68.140625 23.914062 76.867188 20.820312 86.136719 19.226562 Z M 86.136719 19.226562 "/>
</g>
<mask id="mask2">
  <g filter="url(#alpha)">
<rect x="0" y="0" width="200" height="200" style="fill:rgb(0%,0%,0%);fill-opacity:0.984314;stroke:none;"/>
  </g>
</mask>
<clipPath id="clip3">
  <rect x="0" y="0" width="200" height="200"/>
</clipPath>
<g id="surface11" clip-path="url(#clip3)">
<path style=" stroke:none;fill-rule:evenodd;fill:rgb(80.392157%,74.509804%,82.745098%);fill-opacity:1;" d="M 123.410156 21.5 C 141.0625 26.921875 155.351562 37.042969 166.273438 51.863281 C 176.542969 66.238281 181.710938 82.300781 181.773438 100.046875 C 180.5625 98.800781 179.347656 97.5625 178.136719 96.316406 C 177.464844 83.019531 173.691406 70.6875 166.816406 59.316406 C 157.628906 44.535156 144.976562 33.839844 128.863281 27.226562 C 127.046875 25.316406 125.226562 23.410156 123.410156 21.5 Z M 123.410156 21.5 "/>
</g>
<mask id="mask3">
  <g filter="url(#alpha)">
<rect x="0" y="0" width="200" height="200" style="fill:rgb(0%,0%,0%);fill-opacity:0.988235;stroke:none;"/>
  </g>
</mask>
<clipPath id="clip4">
  <rect x="0" y="0" width="200" height="200"/>
</clipPath>
<g id="surface14" clip-path="url(#clip4)">
<path style=" stroke:none;fill-rule:evenodd;fill:rgb(86.666667%,80%,87.45098%);fill-opacity:1;" d="M 59.953125 28.5 C 60.773438 29.4375 61.621094 30.347656 62.5 31.226562 C 60.929688 32.128906 59.386719 33.070312 57.863281 34.046875 C 56.039062 35.199219 54.28125 36.441406 52.589844 37.773438 C 49.375 40.167969 46.375 42.835938 43.589844 45.773438 C 43.078125 46.347656 42.53125 46.890625 41.953125 47.410156 C 41.140625 46.53125 40.289062 45.683594 39.410156 44.863281 C 45.386719 38.277344 52.234375 32.820312 59.953125 28.5 Z M 59.953125 28.5 "/>
</g>
<mask id="mask4">
  <g filter="url(#alpha)">
<rect x="0" y="0" width="200" height="200" style="fill:rgb(0%,0%,0%);fill-opacity:0.988235;stroke:none;"/>
  </g>
</mask>
<clipPath id="clip5">
  <rect x="0" y="0" width="200" height="200"/>
</clipPath>
<g id="surface17" clip-path="url(#clip5)">
<path style=" stroke:none;fill-rule:evenodd;fill:rgb(89.019608%,81.960784%,89.411765%);fill-opacity:1;" d="M 39.410156 44.863281 C 40.289062 45.683594 41.140625 46.53125 41.953125 47.410156 C 40.460938 49.113281 39.039062 50.871094 37.683594 52.683594 C 35.425781 55.613281 33.394531 58.703125 31.589844 61.953125 C 29.890625 64.964844 28.402344 68.085938 27.136719 71.316406 C 27.082031 71.328125 27.035156 71.359375 27 71.410156 C 26.085938 70.507812 25.191406 69.601562 24.316406 68.683594 C 27.933594 59.804688 32.964844 51.867188 39.410156 44.863281 Z M 39.410156 44.863281 "/>
</g>
<mask id="mask5">
  <g filter="url(#alpha)">
<rect x="0" y="0" width="200" height="200" style="fill:rgb(0%,0%,0%);fill-opacity:0.988235;stroke:none;"/>
  </g>
</mask>
<clipPath id="clip6">
  <rect x="0" y="0" width="200" height="200"/>
</clipPath>
<g id="surface20" clip-path="url(#clip6)">
<path style=" stroke:none;fill-rule:evenodd;fill:rgb(91.764706%,84.313725%,90.980392%);fill-opacity:1;" d="M 24.316406 68.683594 C 25.191406 69.601562 26.085938 70.507812 27 71.410156 C 27.035156 71.359375 27.082031 71.328125 27.136719 71.316406 C 26.964844 71.765625 26.816406 72.222656 26.683594 72.683594 C 25.199219 76.375 24.078125 80.191406 23.316406 84.136719 C 22.652344 87.285156 22.199219 90.464844 21.953125 93.683594 C 21.640625 97.117188 21.613281 100.542969 21.863281 103.953125 C 21.863281 104.53125 21.863281 105.105469 21.863281 105.683594 C 20.621094 104.410156 19.378906 103.136719 18.136719 101.863281 C 17.835938 90.359375 19.898438 79.300781 24.316406 68.683594 Z M 24.316406 68.683594 "/>
</g>
<mask id="mask6">
  <g filter="url(#alpha)">
<rect x="0" y="0" width="200" height="200" style="fill:rgb(0%,0%,0%);fill-opacity:0.992157;stroke:none;"/>
  </g>
</mask>
<clipPath id="clip7">
  <rect x="0" y="0" width="200" height="200"/>
</clipPath>
<g id="surface23" clip-path="url(#clip7)">
<path style=" stroke:none;fill-rule:evenodd;fill:rgb(82.352941%,76.470588%,84.313725%);fill-opacity:1;" d="M 178.136719 96.316406 C 179.347656 97.5625 180.5625 98.800781 181.773438 100.046875 C 181.820312 105.902344 181.210938 111.691406 179.953125 117.410156 C 178.816406 116.425781 177.816406 115.332031 176.953125 114.136719 C 177.988281 108.238281 178.382812 102.300781 178.136719 96.316406 Z M 178.136719 96.316406 "/>
</g>
<mask id="mask7">
  <g filter="url(#alpha)">
<rect x="0" y="0" width="200" height="200" style="fill:rgb(0%,0%,0%);fill-opacity:0.988235;stroke:none;"/>
  </g>
</mask>
<clipPath id="clip8">
  <rect x="0" y="0" width="200" height="200"/>
</clipPath>
<g id="surface26" clip-path="url(#clip8)">
<path style=" stroke:none;fill-rule:evenodd;fill:rgb(84.313725%,77.647059%,85.490196%);fill-opacity:1;" d="M 176.953125 114.136719 C 177.816406 115.332031 178.816406 116.425781 179.953125 117.410156 C 177.925781 126.621094 174.441406 135.226562 169.5 143.226562 C 168.589844 142.375 167.710938 141.496094 166.863281 140.589844 C 167.355469 139.640625 167.871094 138.699219 168.410156 137.773438 C 169.738281 135.382812 170.953125 132.929688 172.046875 130.410156 C 173.050781 128 173.929688 125.546875 174.683594 123.046875 C 175.589844 120.105469 176.347656 117.136719 176.953125 114.136719 Z M 176.953125 114.136719 "/>
</g>
<mask id="mask8">
  <g filter="url(#alpha)">
<rect x="0" y="0" width="200" height="200" style="fill:rgb(0%,0%,0%);fill-opacity:0.984314;stroke:none;"/>
  </g>
</mask>
<clipPath id="clip9">
  <rect x="0" y="0" width="200" height="200"/>
</clipPath>
<g id="surface29" clip-path="url(#clip9)">
<path style=" stroke:none;fill-rule:evenodd;fill:rgb(94.117647%,86.27451%,92.941176%);fill-opacity:1;" d="M 18.136719 101.863281 C 19.378906 103.136719 20.621094 104.410156 21.863281 105.683594 C 22.023438 107.148438 22.203125 108.601562 22.410156 110.046875 C 22.648438 112.328125 23.042969 114.570312 23.589844 116.773438 C 25.519531 125.722656 28.925781 134.054688 33.816406 141.773438 C 44.84375 158.753906 60.128906 169.996094 79.683594 175.5 C 81.847656 176.144531 84.0625 176.632812 86.316406 176.953125 C 87.71875 177.261719 89.144531 177.503906 90.589844 177.683594 C 91.800781 178.984375 93.015625 180.289062 94.226562 181.589844 C 75.871094 180.195312 59.78125 173.515625 45.953125 161.546875 C 30.648438 147.863281 21.574219 130.789062 18.726562 110.316406 C 18.375 107.511719 18.179688 104.691406 18.136719 101.863281 Z M 18.136719 101.863281 "/>
</g>
<mask id="mask9">
  <g filter="url(#alpha)">
<rect x="0" y="0" width="200" height="200" style="fill:rgb(0%,0%,0%);fill-opacity:0.988235;stroke:none;"/>
  </g>
</mask>
<clipPath id="clip10">
  <rect x="0" y="0" width="200" height="200"/>
</clipPath>
<g id="surface32" clip-path="url(#clip10)">
<path style=" stroke:none;fill-rule:evenodd;fill:rgb(86.666667%,80%,87.45098%);fill-opacity:1;" d="M 166.863281 140.589844 C 167.710938 141.496094 168.589844 142.375 169.5 143.226562 C 164.796875 150.691406 159.039062 157.265625 152.226562 162.953125 C 151.375 162.101562 150.558594 161.222656 149.773438 160.316406 C 150.289062 159.832031 150.800781 159.347656 151.316406 158.863281 C 154.449219 156.21875 157.296875 153.308594 159.863281 150.136719 C 161.296875 148.519531 162.632812 146.824219 163.863281 145.046875 C 164.886719 143.574219 165.886719 142.089844 166.863281 140.589844 Z M 166.863281 140.589844 "/>
</g>
<mask id="mask10">
  <g filter="url(#alpha)">
<rect x="0" y="0" width="200" height="200" style="fill:rgb(0%,0%,0%);fill-opacity:0.988235;stroke:none;"/>
  </g>
</mask>
<clipPath id="clip11">
  <rect x="0" y="0" width="200" height="200"/>
</clipPath>
<g id="surface35" clip-path="url(#clip11)">
<path style=" stroke:none;fill-rule:evenodd;fill:rgb(89.019608%,81.960784%,89.411765%);fill-opacity:1;" d="M 149.773438 160.316406 C 150.558594 161.222656 151.375 162.101562 152.226562 162.953125 C 144.941406 169.039062 136.789062 173.707031 127.773438 176.953125 C 126.832031 176.015625 125.921875 175.042969 125.046875 174.046875 C 128.421875 172.933594 131.695312 171.570312 134.863281 169.953125 C 138.183594 168.324219 141.335938 166.449219 144.316406 164.316406 C 145.042969 163.894531 145.742188 163.425781 146.410156 162.910156 C 147.519531 162.023438 148.640625 161.160156 149.773438 160.316406 Z M 149.773438 160.316406 "/>
</g>
<mask id="mask11">
  <g filter="url(#alpha)">
<rect x="0" y="0" width="200" height="200" style="fill:rgb(0%,0%,0%);fill-opacity:0.992157;stroke:none;"/>
  </g>
</mask>
<clipPath id="clip12">
  <rect x="0" y="0" width="200" height="200"/>
</clipPath>
<g id="surface38" clip-path="url(#clip12)">
<path style=" stroke:none;fill-rule:evenodd;fill:rgb(91.764706%,84.313725%,90.980392%);fill-opacity:1;" d="M 125.046875 174.046875 C 125.921875 175.042969 126.832031 176.015625 127.773438 176.953125 C 116.929688 180.875 105.746094 182.421875 94.226562 181.589844 C 93.015625 180.289062 91.800781 178.984375 90.589844 177.683594 C 91.167969 177.71875 91.742188 177.75 92.316406 177.773438 C 95.71875 178.183594 99.144531 178.304688 102.589844 178.136719 C 105.855469 178.0625 109.097656 177.761719 112.316406 177.226562 C 115.15625 176.792969 117.941406 176.1875 120.683594 175.410156 C 121.753906 175.09375 122.816406 174.757812 123.863281 174.410156 C 124.269531 174.324219 124.664062 174.203125 125.046875 174.046875 Z M 125.046875 174.046875 "/>
</g>
</defs>
<g id="surface1">
<use xlink:href="#surface5" mask="url(#mask0)"/>
<use xlink:href="#surface8" mask="url(#mask1)"/>
<path style=" stroke:none;fill-rule:evenodd;fill:rgb(99.607843%,99.215686%,99.607843%);fill-opacity:1;" d="M 128.863281 27.226562 C 144.976562 33.839844 157.628906 44.535156 166.816406 59.316406 C 173.691406 70.6875 177.464844 83.019531 178.136719 96.316406 C 178.382812 102.300781 177.988281 108.238281 176.953125 114.136719 C 176.347656 117.136719 175.589844 120.105469 174.683594 123.046875 C 168.59375 116.699219 162.519531 110.335938 156.453125 103.953125 C 156.410156 103.867188 156.394531 103.777344 156.410156 103.683594 C 157.667969 96.40625 155.421875 90.480469 149.683594 85.910156 C 145.628906 83.035156 141.144531 82.019531 136.226562 82.863281 C 135.835938 82.351562 135.414062 81.867188 134.953125 81.410156 C 135.125 81.347656 135.304688 81.289062 135.5 81.226562 C 131.523438 73.886719 125.855469 68.25 118.5 64.316406 C 118.511719 64.25 118.496094 64.191406 118.453125 64.136719 C 105.699219 50.863281 92.988281 37.5625 80.316406 24.226562 C 83.226562 23.480469 86.167969 22.875 89.136719 22.410156 C 102.796875 20.621094 116.039062 22.226562 128.863281 27.226562 Z M 128.863281 27.226562 "/>
<use xlink:href="#surface11" mask="url(#mask2)"/>
<path style=" stroke:none;fill-rule:evenodd;fill:rgb(97.647059%,96.862745%,98.039216%);fill-opacity:1;" d="M 80.316406 24.226562 C 92.988281 37.5625 105.699219 50.863281 118.453125 64.136719 C 118.496094 64.191406 118.511719 64.25 118.5 64.316406 C 115.859375 62.953125 113.105469 61.894531 110.226562 61.136719 C 109.5 60.394531 108.789062 59.636719 108.089844 58.863281 C 108.054688 58.882812 108.039062 58.914062 108.046875 58.953125 C 106.765625 57.921875 105.3125 57.253906 103.683594 56.953125 C 103.378906 55.410156 102.757812 54.015625 101.816406 52.773438 C 100.765625 51.703125 99.628906 51.59375 98.410156 52.453125 C 98.269531 52.578125 98.148438 52.714844 98.046875 52.863281 C 97.78125 52.738281 97.554688 52.554688 97.363281 52.316406 C 89.210938 43.726562 81.042969 35.152344 72.863281 26.589844 C 75.285156 25.636719 77.769531 24.847656 80.316406 24.226562 Z M 80.316406 24.226562 "/>
<path style=" stroke:none;fill-rule:evenodd;fill:rgb(96.862745%,96.078431%,97.254902%);fill-opacity:1;" d="M 72.863281 26.589844 C 81.042969 35.152344 89.210938 43.726562 97.363281 52.316406 C 97.554688 52.554688 97.78125 52.738281 98.046875 52.863281 C 97.101562 54.0625 96.523438 55.425781 96.316406 56.953125 C 95.023438 57.195312 93.8125 57.648438 92.683594 58.316406 C 92.175781 57.949219 91.707031 57.523438 91.273438 57.046875 C 83.003906 48.320312 74.699219 39.625 66.363281 30.953125 C 66.023438 30.570312 65.707031 30.175781 65.410156 29.773438 C 67.820312 28.535156 70.304688 27.472656 72.863281 26.589844 Z M 72.863281 26.589844 "/>
<use xlink:href="#surface14" mask="url(#mask3)"/>
<path style=" stroke:none;fill-rule:evenodd;fill:rgb(95.686275%,94.509804%,96.078431%);fill-opacity:1;" d="M 65.410156 29.773438 C 65.707031 30.175781 66.023438 30.570312 66.363281 30.953125 C 74.699219 39.625 83.003906 48.320312 91.273438 57.046875 C 91.707031 57.523438 92.175781 57.949219 92.683594 58.316406 C 91.839844 58.832031 91.324219 59.574219 91.136719 60.546875 C 91.144531 60.78125 91.1875 61.007812 91.273438 61.226562 C 91.4375 61.394531 91.605469 61.5625 91.773438 61.726562 C 92.699219 62.207031 93.636719 62.660156 94.589844 63.089844 C 95.75 63.660156 96.613281 64.527344 97.183594 65.683594 C 97.472656 66.6875 97.773438 67.6875 98.089844 68.683594 C 98.535156 69.269531 99.128906 69.511719 99.863281 69.410156 C 100.796875 69.527344 101.449219 69.164062 101.816406 68.316406 C 102.121094 67.40625 102.425781 66.5 102.726562 65.589844 C 103.289062 64.546875 104.089844 63.742188 105.136719 63.183594 C 106.148438 62.714844 107.148438 62.230469 108.136719 61.726562 C 108.691406 61.332031 108.890625 60.804688 108.726562 60.136719 C 108.546875 59.714844 108.320312 59.320312 108.046875 58.953125 C 108.039062 58.914062 108.054688 58.882812 108.089844 58.863281 C 108.789062 59.636719 109.5 60.394531 110.226562 61.136719 C 110.011719 61.039062 109.800781 61.039062 109.589844 61.136719 C 109.464844 61.644531 109.191406 62.054688 108.773438 62.363281 C 107.867188 62.886719 106.929688 63.34375 105.953125 63.726562 C 104.117188 64.660156 103.070312 66.160156 102.816406 68.226562 C 102.136719 70.015625 100.851562 70.695312 98.953125 70.273438 C 98.046875 70.03125 97.421875 69.46875 97.089844 68.589844 C 96.859375 67.808594 96.648438 67.023438 96.453125 66.226562 C 96.027344 65.253906 95.34375 64.511719 94.410156 64 C 93.300781 63.488281 92.207031 62.945312 91.136719 62.363281 C 90.714844 62.054688 90.441406 61.644531 90.316406 61.136719 C 89.890625 61.078125 89.46875 61.125 89.046875 61.273438 C 87.699219 61.6875 86.367188 62.125 85.046875 62.589844 C 75.984375 53.074219 66.925781 43.5625 57.863281 34.046875 C 59.386719 33.070312 60.929688 32.128906 62.5 31.226562 C 63.46875 30.742188 64.4375 30.257812 65.410156 29.773438 Z M 65.410156 29.773438 "/>
<path style=" stroke:none;fill-rule:evenodd;fill:rgb(94.901961%,93.333333%,95.686275%);fill-opacity:1;" d="M 57.863281 34.046875 C 66.925781 43.5625 75.984375 53.074219 85.046875 62.589844 C 83.054688 63.464844 81.117188 64.433594 79.226562 65.5 C 78.597656 65.007812 78.007812 64.464844 77.453125 63.863281 C 69.179688 55.152344 60.894531 46.453125 52.589844 37.773438 C 54.28125 36.441406 56.039062 35.199219 57.863281 34.046875 Z M 57.863281 34.046875 "/>
<path style=" stroke:none;fill-rule:evenodd;fill:rgb(93.72549%,91.764706%,94.509804%);fill-opacity:1;" d="M 52.589844 37.773438 C 60.894531 46.453125 69.179688 55.152344 77.453125 63.863281 C 78.007812 64.464844 78.597656 65.007812 79.226562 65.5 C 75.75 67.652344 72.628906 70.257812 69.863281 73.316406 C 69.507812 73.101562 69.191406 72.828125 68.910156 72.5 C 60.609375 63.746094 52.277344 55.019531 43.910156 46.316406 C 43.78125 46.144531 43.671875 45.964844 43.589844 45.773438 C 46.375 42.835938 49.375 40.167969 52.589844 37.773438 Z M 52.589844 37.773438 "/>
<use xlink:href="#surface17" mask="url(#mask4)"/>
<path style=" stroke:none;fill-rule:evenodd;fill:rgb(92.156863%,90.196078%,93.333333%);fill-opacity:1;" d="M 43.589844 45.773438 C 43.671875 45.964844 43.78125 46.144531 43.910156 46.316406 C 52.277344 55.019531 60.609375 63.746094 68.910156 72.5 C 69.191406 72.828125 69.507812 73.101562 69.863281 73.316406 C 67.859375 75.660156 66.101562 78.171875 64.589844 80.863281 C 55.589844 71.5 46.621094 62.105469 37.683594 52.683594 C 39.039062 50.871094 40.460938 49.113281 41.953125 47.410156 C 42.53125 46.890625 43.078125 46.347656 43.589844 45.773438 Z M 43.589844 45.773438 "/>
<path style=" stroke:none;fill-rule:evenodd;fill:rgb(94.117647%,12.941176%,2.352941%);fill-opacity:1;" d="M 108.046875 58.953125 C 108.320312 59.320312 108.546875 59.714844 108.726562 60.136719 C 108.890625 60.804688 108.691406 61.332031 108.136719 61.726562 C 107.148438 62.230469 106.148438 62.714844 105.136719 63.183594 C 104.089844 63.742188 103.289062 64.546875 102.726562 65.589844 C 102.425781 66.5 102.121094 67.40625 101.816406 68.316406 C 101.449219 69.164062 100.796875 69.527344 99.863281 69.410156 C 99.128906 69.511719 98.535156 69.269531 98.089844 68.683594 C 97.773438 67.6875 97.472656 66.6875 97.183594 65.683594 C 96.613281 64.527344 95.75 63.660156 94.589844 63.089844 C 93.636719 62.660156 92.699219 62.207031 91.773438 61.726562 C 91.605469 61.5625 91.4375 61.394531 91.273438 61.226562 C 91.1875 61.007812 91.144531 60.78125 91.136719 60.546875 C 91.324219 59.574219 91.839844 58.832031 92.683594 58.316406 C 93.8125 57.648438 95.023438 57.195312 96.316406 56.953125 C 96.523438 55.425781 97.101562 54.0625 98.046875 52.863281 C 98.148438 52.714844 98.269531 52.578125 98.410156 52.453125 C 99.628906 51.59375 100.765625 51.703125 101.816406 52.773438 C 102.757812 54.015625 103.378906 55.410156 103.683594 56.953125 C 105.3125 57.253906 106.765625 57.921875 108.046875 58.953125 Z M 108.046875 58.953125 "/>
<path style=" stroke:none;fill-rule:evenodd;fill:rgb(91.372549%,88.627451%,92.156863%);fill-opacity:1;" d="M 37.683594 52.683594 C 46.621094 62.105469 55.589844 71.5 64.589844 80.863281 C 64.542969 80.976562 64.480469 81.082031 64.410156 81.183594 C 64.601562 81.289062 64.8125 81.351562 65.046875 81.363281 C 69.6875 81.949219 74.324219 82.449219 78.953125 82.863281 C 78.914062 82.859375 78.882812 82.871094 78.863281 82.910156 C 79.46875 83.527344 80.074219 84.117188 80.683594 84.683594 C 74.6875 84.238281 68.71875 83.589844 62.773438 82.726562 C 59.28125 82.296875 55.949219 82.824219 52.773438 84.316406 C 46.230469 77.425781 39.671875 70.546875 33.089844 63.683594 C 32.570312 63.117188 32.070312 62.539062 31.589844 61.953125 C 33.394531 58.703125 35.425781 55.613281 37.683594 52.683594 Z M 37.683594 52.683594 "/>
<path style=" stroke:none;fill-rule:evenodd;fill:rgb(94.117647%,12.54902%,1.960784%);fill-opacity:1;" d="M 110.226562 61.136719 C 113.105469 61.894531 115.859375 62.953125 118.5 64.316406 C 125.855469 68.25 131.523438 73.886719 135.5 81.226562 C 135.304688 81.289062 135.125 81.347656 134.953125 81.410156 C 128.628906 82.203125 122.292969 82.808594 115.953125 83.226562 C 110.289062 83.496094 104.625 83.644531 98.953125 83.683594 C 92.292969 83.625 85.625 83.351562 78.953125 82.863281 C 74.324219 82.449219 69.6875 81.949219 65.046875 81.363281 C 64.8125 81.351562 64.601562 81.289062 64.410156 81.183594 C 64.480469 81.082031 64.542969 80.976562 64.589844 80.863281 C 66.101562 78.171875 67.859375 75.660156 69.863281 73.316406 C 72.628906 70.257812 75.75 67.652344 79.226562 65.5 C 81.117188 64.433594 83.054688 63.464844 85.046875 62.589844 C 86.367188 62.125 87.699219 61.6875 89.046875 61.273438 C 89.46875 61.125 89.890625 61.078125 90.316406 61.136719 C 90.441406 61.644531 90.714844 62.054688 91.136719 62.363281 C 92.207031 62.945312 93.300781 63.488281 94.410156 64 C 95.34375 64.511719 96.027344 65.253906 96.453125 66.226562 C 96.648438 67.023438 96.859375 67.808594 97.089844 68.589844 C 97.421875 69.46875 98.046875 70.03125 98.953125 70.273438 C 100.851562 70.695312 102.136719 70.015625 102.816406 68.226562 C 103.070312 66.160156 104.117188 64.660156 105.953125 63.726562 C 106.929688 63.34375 107.867188 62.886719 108.773438 62.363281 C 109.191406 62.054688 109.464844 61.644531 109.589844 61.136719 C 109.800781 61.039062 110.011719 61.039062 110.226562 61.136719 Z M 110.226562 61.136719 "/>
<path style=" stroke:none;fill-rule:evenodd;fill:rgb(89.803922%,87.058824%,90.980392%);fill-opacity:1;" d="M 31.589844 61.953125 C 32.070312 62.539062 32.570312 63.117188 33.089844 63.683594 C 39.671875 70.546875 46.230469 77.425781 52.773438 84.316406 C 49.449219 86.066406 46.875 88.582031 45.046875 91.863281 C 38.925781 85.46875 32.804688 79.074219 26.683594 72.683594 C 26.816406 72.222656 26.964844 71.765625 27.136719 71.316406 C 28.402344 68.085938 29.890625 64.964844 31.589844 61.953125 Z M 31.589844 61.953125 "/>
<path style=" stroke:none;fill-rule:evenodd;fill:rgb(88.627451%,85.098039%,89.803922%);fill-opacity:1;" d="M 26.683594 72.683594 C 32.804688 79.074219 38.925781 85.46875 45.046875 91.863281 C 42.917969 96.234375 42.554688 100.75 43.953125 105.410156 C 43.503906 105.097656 43.0625 104.703125 42.636719 104.226562 C 36.847656 98.136719 31.0625 92.046875 25.273438 85.953125 C 24.660156 85.292969 24.007812 84.6875 23.316406 84.136719 C 24.078125 80.191406 25.199219 76.375 26.683594 72.683594 Z M 26.683594 72.683594 "/>
<use xlink:href="#surface20" mask="url(#mask5)"/>
<path style=" stroke:none;fill-rule:evenodd;fill:rgb(97.254902%,94.901961%,96.078431%);fill-opacity:1;" d="M 134.953125 81.410156 C 135.414062 81.867188 135.835938 82.351562 136.226562 82.863281 C 130.105469 83.769531 123.957031 84.40625 117.773438 84.773438 C 117.304688 84.261719 116.820312 83.761719 116.316406 83.273438 C 116.199219 83.226562 116.078125 83.214844 115.953125 83.226562 C 122.292969 82.808594 128.628906 82.203125 134.953125 81.410156 Z M 134.953125 81.410156 "/>
<path style=" stroke:none;fill-rule:evenodd;fill:rgb(94.117647%,12.54902%,1.960784%);fill-opacity:1;" d="M 80.683594 84.683594 C 86.433594 85.066406 92.191406 85.277344 97.953125 85.316406 C 104.566406 85.363281 111.171875 85.183594 117.773438 84.773438 C 123.957031 84.40625 130.105469 83.769531 136.226562 82.863281 C 141.144531 82.019531 145.628906 83.035156 149.683594 85.910156 C 155.421875 90.480469 157.667969 96.40625 156.410156 103.683594 C 155.785156 106.230469 154.695312 108.5625 153.136719 110.683594 C 151.496094 112.699219 149.523438 114.304688 147.226562 115.5 C 144.09375 117.023438 140.792969 117.597656 137.316406 117.226562 C 137 117.171875 136.683594 117.109375 136.363281 117.046875 C 135.878906 117.953125 135.394531 118.863281 134.910156 119.773438 C 134.375 120.65625 133.847656 121.535156 133.316406 122.410156 C 131.496094 125.023438 129.40625 127.433594 127.046875 129.636719 C 126.367188 130.15625 125.730469 130.714844 125.136719 131.316406 C 122.730469 133.171875 120.15625 134.78125 117.410156 136.136719 C 116.8125 136.394531 116.222656 136.667969 115.636719 136.953125 C 115.324219 136.429688 114.914062 135.988281 114.410156 135.636719 C 112.777344 134.851562 111.140625 134.0625 109.5 133.273438 C 107.566406 132.246094 106.125 130.746094 105.183594 128.773438 C 104.753906 127.511719 104.359375 126.238281 104 124.953125 C 103.386719 123.171875 102.128906 122.289062 100.226562 122.316406 C 98.40625 122.210938 97.117188 122.96875 96.363281 124.589844 C 96 125.726562 95.710938 126.875 95.5 128.046875 C 94.949219 129.824219 93.921875 131.261719 92.410156 132.363281 C 91.789062 132.78125 91.152344 133.175781 90.5 133.546875 C 88.960938 134.222656 87.445312 134.953125 85.953125 135.726562 C 85.464844 136.113281 85.070312 136.582031 84.773438 137.136719 C 84.316406 136.953125 83.863281 136.773438 83.410156 136.589844 C 74.527344 132.390625 67.90625 125.875 63.546875 117.046875 C 60.367188 117.613281 57.261719 117.34375 54.226562 116.226562 C 49.21875 114.125 45.792969 110.519531 43.953125 105.410156 C 42.554688 100.75 42.917969 96.234375 45.046875 91.863281 C 46.875 88.582031 49.449219 86.066406 52.773438 84.316406 C 55.949219 82.824219 59.28125 82.296875 62.773438 82.726562 C 68.71875 83.589844 74.6875 84.238281 80.683594 84.683594 Z M 80.683594 84.683594 "/>
<path style=" stroke:none;fill-rule:evenodd;fill:rgb(94.117647%,90.588235%,92.941176%);fill-opacity:1;" d="M 78.953125 82.863281 C 85.625 83.351562 92.292969 83.625 98.953125 83.683594 C 98.136719 83.667969 97.316406 83.683594 96.5 83.726562 C 96.96875 84.273438 97.453125 84.804688 97.953125 85.316406 C 92.191406 85.277344 86.433594 85.066406 80.683594 84.683594 C 80.074219 84.117188 79.46875 83.527344 78.863281 82.910156 C 78.882812 82.871094 78.914062 82.859375 78.953125 82.863281 Z M 78.953125 82.863281 "/>
<path style=" stroke:none;fill-rule:evenodd;fill:rgb(95.686275%,92.941176%,94.509804%);fill-opacity:1;" d="M 115.953125 83.226562 C 116.078125 83.214844 116.199219 83.226562 116.316406 83.273438 C 116.820312 83.761719 117.304688 84.261719 117.773438 84.773438 C 111.171875 85.183594 104.566406 85.363281 97.953125 85.316406 C 97.453125 84.804688 96.96875 84.273438 96.5 83.726562 C 97.316406 83.683594 98.136719 83.667969 98.953125 83.683594 C 104.625 83.644531 110.289062 83.496094 115.953125 83.226562 Z M 115.953125 83.226562 "/>
<path style=" stroke:none;fill-rule:evenodd;fill:rgb(87.45098%,83.921569%,89.019608%);fill-opacity:1;" d="M 23.316406 84.136719 C 24.007812 84.6875 24.660156 85.292969 25.273438 85.953125 C 31.0625 92.046875 36.847656 98.136719 42.636719 104.226562 C 43.0625 104.703125 43.503906 105.097656 43.953125 105.410156 C 45.792969 110.519531 49.21875 114.125 54.226562 116.226562 C 54.1875 116.222656 54.15625 116.238281 54.136719 116.273438 C 73.546875 136.578125 92.941406 156.898438 112.316406 177.226562 C 109.097656 177.761719 105.855469 178.0625 102.589844 178.136719 C 75.742188 149.953125 48.863281 121.804688 21.953125 93.683594 C 22.199219 90.464844 22.652344 87.285156 23.316406 84.136719 Z M 23.316406 84.136719 "/>
<path style=" stroke:none;fill-rule:evenodd;fill:rgb(93.72549%,92.156863%,94.509804%);fill-opacity:1;" d="M 101.316406 88.773438 C 101.804688 89.261719 102.261719 89.777344 102.683594 90.316406 C 97.105469 90.332031 91.53125 90.316406 85.953125 90.273438 C 85.46875 89.789062 84.984375 89.304688 84.5 88.816406 C 90.105469 88.773438 95.710938 88.757812 101.316406 88.773438 Z M 101.316406 88.773438 "/>
<path style=" stroke:none;fill-rule:evenodd;fill:rgb(5.490196%,12.54902%,18.431373%);fill-opacity:1;" d="M 125.226562 90.410156 C 126.703125 90.640625 127.6875 91.457031 128.183594 92.863281 C 128.242188 97.53125 128.242188 102.199219 128.183594 106.863281 C 128.121094 107.074219 128.078125 107.285156 128.046875 107.5 C 127.386719 108.785156 126.328125 109.453125 124.863281 109.5 C 107.984375 109.515625 91.105469 109.5 74.226562 109.453125 C 72.867188 109.097656 72.035156 108.234375 71.726562 106.863281 C 71.667969 102.199219 71.667969 97.53125 71.726562 92.863281 C 72.113281 91.597656 72.949219 90.792969 74.226562 90.453125 C 91.226562 90.410156 108.226562 90.394531 125.226562 90.410156 Z M 125.226562 90.410156 "/>
<path style=" stroke:none;fill-rule:evenodd;fill:rgb(86.666667%,82.745098%,88.235294%);fill-opacity:1;" d="M 21.953125 93.683594 C 48.863281 121.804688 75.742188 149.953125 102.589844 178.136719 C 99.144531 178.304688 95.71875 178.183594 92.316406 177.773438 C 92.386719 177.785156 92.445312 177.769531 92.5 177.726562 C 69.003906 153.046875 45.472656 128.394531 21.910156 103.773438 C 21.867188 103.828125 21.851562 103.886719 21.863281 103.953125 C 21.613281 100.542969 21.640625 97.117188 21.953125 93.683594 Z M 21.953125 93.683594 "/>
<path style=" stroke:none;fill-rule:evenodd;fill:rgb(1.176471%,49.019608%,27.45098%);fill-opacity:1;" d="M 83.773438 95.046875 C 86.875 94.742188 88.859375 96.074219 89.726562 99.046875 C 89.976562 102.050781 88.65625 103.976562 85.773438 104.816406 C 83.730469 105.128906 82.082031 104.476562 80.816406 102.863281 C 79.277344 100.226562 79.65625 97.90625 81.953125 95.910156 C 82.53125 95.542969 83.140625 95.257812 83.773438 95.046875 Z M 83.773438 95.046875 "/>
<path style=" stroke:none;fill-rule:evenodd;fill:rgb(1.176471%,49.019608%,27.45098%);fill-opacity:1;" d="M 114.046875 95.046875 C 116.988281 94.761719 118.941406 96.003906 119.910156 98.773438 C 120.3125 101.882812 119.023438 103.898438 116.046875 104.816406 C 113.171875 105.132812 111.246094 103.933594 110.273438 101.226562 C 109.828125 98.113281 111.085938 96.054688 114.046875 95.046875 Z M 114.046875 95.046875 "/>
<path style=" stroke:none;fill-rule:evenodd;fill:rgb(94.901961%,93.72549%,95.686275%);fill-opacity:1;" d="M 101.316406 88.773438 C 109.347656 88.773438 117.378906 88.773438 125.410156 88.773438 C 127.640625 89.113281 129.113281 90.355469 129.816406 92.5 C 129.96875 97.285156 129.996094 102.074219 129.910156 106.863281 C 129.78125 107.539062 129.550781 108.175781 129.226562 108.773438 C 128.835938 108.351562 128.441406 107.925781 128.046875 107.5 C 128.078125 107.285156 128.121094 107.074219 128.183594 106.863281 C 128.242188 102.199219 128.242188 97.53125 128.183594 92.863281 C 127.6875 91.457031 126.703125 90.640625 125.226562 90.410156 C 117.726562 90.316406 110.210938 90.289062 102.683594 90.316406 C 102.261719 89.777344 101.804688 89.261719 101.316406 88.773438 Z M 101.316406 88.773438 "/>
<use xlink:href="#surface23" mask="url(#mask6)"/>
<path style=" stroke:none;fill-rule:evenodd;fill:rgb(2.352941%,98.823529%,54.901961%);fill-opacity:1;" d="M 84.046875 96.773438 C 85.875 96.5625 87.164062 97.289062 87.910156 98.953125 C 88.300781 100.855469 87.617188 102.203125 85.863281 103 C 84.496094 103.402344 83.328125 103.085938 82.363281 102.046875 C 81.226562 100.398438 81.363281 98.871094 82.773438 97.453125 C 83.191406 97.199219 83.617188 96.972656 84.046875 96.773438 Z M 84.046875 96.773438 "/>
<path style=" stroke:none;fill-rule:evenodd;fill:rgb(2.352941%,98.431373%,54.901961%);fill-opacity:1;" d="M 114.316406 96.773438 C 116.910156 96.621094 118.226562 97.832031 118.273438 100.410156 C 117.742188 102.453125 116.425781 103.34375 114.316406 103.089844 C 112.519531 102.476562 111.714844 101.222656 111.910156 99.316406 C 112.265625 98.039062 113.066406 97.1875 114.316406 96.773438 Z M 114.316406 96.773438 "/>
<path style=" stroke:none;fill-rule:evenodd;fill:rgb(88.627451%,83.529412%,87.843137%);fill-opacity:1;" d="M 55.410156 90.316406 C 57.082031 90.246094 58.6875 90.535156 60.226562 91.183594 C 60.699219 91.371094 61.125 91.628906 61.5 91.953125 C 60.6875 95.765625 60.457031 99.613281 60.816406 103.5 C 60.9375 104.933594 61.136719 106.359375 61.410156 107.773438 C 61.378906 107.894531 61.347656 108.015625 61.316406 108.136719 C 57.472656 110.261719 53.777344 110.03125 50.226562 107.453125 C 46.554688 104.070312 45.722656 100.085938 47.726562 95.5 C 49.445312 92.511719 52.003906 90.785156 55.410156 90.316406 Z M 55.410156 90.316406 "/>
<path style=" stroke:none;fill-rule:evenodd;fill:rgb(44.313725%,6.27451%,1.176471%);fill-opacity:1;" d="M 55.316406 91.136719 C 57.101562 91.058594 58.796875 91.40625 60.410156 92.183594 C 60.460938 92.261719 60.492188 92.355469 60.5 92.453125 C 59.898438 95.867188 59.703125 99.308594 59.910156 102.773438 C 60.089844 104.414062 60.273438 106.050781 60.453125 107.683594 C 56.859375 109.429688 53.511719 109.050781 50.410156 106.546875 C 47.613281 103.738281 46.839844 100.449219 48.089844 96.683594 C 49.519531 93.550781 51.929688 91.703125 55.316406 91.136719 Z M 55.316406 91.136719 "/>
<path style=" stroke:none;fill-rule:evenodd;fill:rgb(85.882353%,81.568627%,87.843137%);fill-opacity:1;" d="M 92.316406 177.773438 C 91.742188 177.75 91.167969 177.71875 90.589844 177.683594 C 89.144531 177.503906 87.71875 177.261719 86.316406 176.953125 C 86.359375 176.960938 86.386719 176.945312 86.410156 176.910156 C 65.089844 154.5625 43.773438 132.210938 22.453125 109.863281 C 22.414062 109.917969 22.398438 109.976562 22.410156 110.046875 C 22.203125 108.601562 22.023438 107.148438 21.863281 105.683594 C 21.863281 105.105469 21.863281 104.53125 21.863281 103.953125 C 21.851562 103.886719 21.867188 103.828125 21.910156 103.773438 C 45.472656 128.394531 69.003906 153.046875 92.5 177.726562 C 92.445312 177.769531 92.386719 177.785156 92.316406 177.773438 Z M 92.316406 177.773438 "/>
<path style=" stroke:none;fill-rule:evenodd;fill:rgb(96.862745%,94.117647%,94.901961%);fill-opacity:1;" d="M 142.773438 90.316406 C 147.804688 90.277344 151.183594 92.609375 152.910156 97.316406 C 153.910156 101.980469 152.441406 105.628906 148.5 108.273438 C 145.167969 110.066406 141.867188 110.023438 138.589844 108.136719 C 138.5625 108.015625 138.53125 107.894531 138.5 107.773438 C 139.21875 103.921875 139.417969 100.042969 139.089844 96.136719 C 138.96875 94.722656 138.742188 93.328125 138.410156 91.953125 C 138.988281 91.511719 139.625 91.164062 140.316406 90.910156 C 141.136719 90.65625 141.953125 90.460938 142.773438 90.316406 Z M 142.773438 90.316406 "/>
<path style=" stroke:none;fill-rule:evenodd;fill:rgb(44.313725%,6.27451%,1.176471%);fill-opacity:1;" d="M 142.683594 91.136719 C 147.183594 91 150.289062 93 152 97.136719 C 152.992188 100.765625 152.15625 103.902344 149.5 106.546875 C 146.417969 109.027344 143.082031 109.421875 139.5 107.726562 C 139.445312 107.632812 139.414062 107.523438 139.410156 107.410156 C 140.011719 103.917969 140.210938 100.402344 140 96.863281 C 139.855469 95.308594 139.671875 93.761719 139.453125 92.226562 C 140.480469 91.6875 141.558594 91.324219 142.683594 91.136719 Z M 142.683594 91.136719 "/>
<path style=" stroke:none;fill-rule:evenodd;fill:rgb(97.647059%,96.862745%,98.039216%);fill-opacity:1;" d="M 156.410156 103.683594 C 156.394531 103.777344 156.410156 103.867188 156.453125 103.953125 C 162.519531 110.335938 168.59375 116.699219 174.683594 123.046875 C 173.929688 125.546875 173.050781 128 172.046875 130.410156 C 165.722656 123.855469 159.417969 117.277344 153.136719 110.683594 C 154.695312 108.5625 155.785156 106.230469 156.410156 103.683594 Z M 156.410156 103.683594 "/>
<path style=" stroke:none;fill-rule:evenodd;fill:rgb(88.235294%,84.313725%,87.45098%);fill-opacity:1;" d="M 125.410156 88.773438 C 117.378906 88.773438 109.347656 88.773438 101.316406 88.773438 C 95.710938 88.757812 90.105469 88.773438 84.5 88.816406 C 84.984375 89.304688 85.46875 89.789062 85.953125 90.273438 C 91.53125 90.316406 97.105469 90.332031 102.683594 90.316406 C 110.210938 90.289062 117.726562 90.316406 125.226562 90.410156 C 108.226562 90.394531 91.226562 90.410156 74.226562 90.453125 C 72.949219 90.792969 72.113281 91.597656 71.726562 92.863281 C 71.667969 97.53125 71.667969 102.199219 71.726562 106.863281 C 72.035156 108.234375 72.867188 109.097656 74.226562 109.453125 C 91.105469 109.5 107.984375 109.515625 124.863281 109.5 C 113.9375 109.574219 103 109.621094 92.046875 109.636719 C 92.480469 110.136719 92.933594 110.625 93.410156 111.089844 C 104.074219 111.136719 114.742188 111.152344 125.410156 111.136719 C 116.910156 111.199219 108.394531 111.226562 99.863281 111.226562 C 91.195312 111.242188 82.527344 111.195312 73.863281 111.089844 C 71.691406 110.492188 70.40625 109.082031 70 106.863281 C 69.9375 102.257812 69.9375 97.652344 70 93.046875 C 70.402344 90.832031 71.691406 89.421875 73.863281 88.816406 C 82.527344 88.710938 91.195312 88.667969 99.863281 88.683594 C 108.394531 88.683594 116.910156 88.710938 125.410156 88.773438 Z M 125.410156 88.773438 "/>
<path style=" stroke:none;fill-rule:evenodd;fill:rgb(93.333333%,91.764706%,94.117647%);fill-opacity:1;" d="M 128.046875 107.5 C 128.441406 107.925781 128.835938 108.351562 129.226562 108.773438 C 128.332031 110.160156 127.0625 110.949219 125.410156 111.136719 C 114.742188 111.152344 104.074219 111.136719 93.410156 111.089844 C 92.933594 110.625 92.480469 110.136719 92.046875 109.636719 C 103 109.621094 113.9375 109.574219 124.863281 109.5 C 126.328125 109.453125 127.386719 108.785156 128.046875 107.5 Z M 128.046875 107.5 "/>
<path style=" stroke:none;fill-rule:evenodd;fill:rgb(85.098039%,81.176471%,87.45098%);fill-opacity:1;" d="M 86.316406 176.953125 C 84.0625 176.632812 81.847656 176.144531 79.683594 175.5 C 79.722656 175.507812 79.753906 175.492188 79.773438 175.453125 C 61.027344 155.890625 42.316406 136.300781 23.636719 116.683594 C 23.601562 116.703125 23.585938 116.734375 23.589844 116.773438 C 23.042969 114.570312 22.648438 112.328125 22.410156 110.046875 C 22.398438 109.976562 22.414062 109.917969 22.453125 109.863281 C 43.773438 132.210938 65.089844 154.5625 86.410156 176.910156 C 86.386719 176.945312 86.359375 176.960938 86.316406 176.953125 Z M 86.316406 176.953125 "/>
<path style=" stroke:none;fill-rule:evenodd;fill:rgb(96.862745%,96.078431%,97.254902%);fill-opacity:1;" d="M 153.136719 110.683594 C 159.417969 117.277344 165.722656 123.855469 172.046875 130.410156 C 170.953125 132.929688 169.738281 135.382812 168.410156 137.773438 C 161.867188 130.972656 155.335938 124.15625 148.816406 117.316406 C 148.265625 116.722656 147.738281 116.117188 147.226562 115.5 C 149.523438 114.304688 151.496094 112.699219 153.136719 110.683594 Z M 153.136719 110.683594 "/>
<use xlink:href="#surface26" mask="url(#mask7)"/>
<path style=" stroke:none;fill-rule:evenodd;fill:rgb(95.686275%,94.509804%,96.078431%);fill-opacity:1;" d="M 147.226562 115.5 C 147.738281 116.117188 148.265625 116.722656 148.816406 117.316406 C 155.335938 124.15625 161.867188 130.972656 168.410156 137.773438 C 167.871094 138.699219 167.355469 139.640625 166.863281 140.589844 C 165.886719 142.089844 164.886719 143.574219 163.863281 145.046875 C 154.984375 135.800781 146.136719 126.53125 137.316406 117.226562 C 140.792969 117.597656 144.09375 117.023438 147.226562 115.5 Z M 147.226562 115.5 "/>
<path style=" stroke:none;fill-rule:evenodd;fill:rgb(88.235294%,84.705882%,89.803922%);fill-opacity:1;" d="M 54.226562 116.226562 C 57.261719 117.34375 60.367188 117.613281 63.546875 117.046875 C 67.90625 125.875 74.527344 132.390625 83.410156 136.589844 C 83.371094 136.585938 83.339844 136.601562 83.316406 136.636719 C 95.683594 149.519531 108.019531 162.425781 120.316406 175.363281 C 120.433594 175.40625 120.558594 175.421875 120.683594 175.410156 C 117.941406 176.1875 115.15625 176.792969 112.316406 177.226562 C 92.941406 156.898438 73.546875 136.578125 54.136719 116.273438 C 54.15625 116.238281 54.1875 116.222656 54.226562 116.226562 Z M 54.226562 116.226562 "/>
<path style=" stroke:none;fill-rule:evenodd;fill:rgb(84.313725%,80%,86.666667%);fill-opacity:1;" d="M 79.683594 175.5 C 60.128906 169.996094 44.84375 158.753906 33.816406 141.773438 C 28.925781 134.054688 25.519531 125.722656 23.589844 116.773438 C 23.585938 116.734375 23.601562 116.703125 23.636719 116.683594 C 42.316406 136.300781 61.027344 155.890625 79.773438 175.453125 C 79.753906 175.492188 79.722656 175.507812 79.683594 175.5 Z M 79.683594 175.5 "/>
<path style=" stroke:none;fill-rule:evenodd;fill:rgb(94.901961%,93.333333%,95.686275%);fill-opacity:1;" d="M 137.316406 117.226562 C 146.136719 126.53125 154.984375 135.800781 163.863281 145.046875 C 162.632812 146.824219 161.296875 148.519531 159.863281 150.136719 C 151.011719 140.890625 142.164062 131.648438 133.316406 122.410156 C 133.847656 121.535156 134.375 120.65625 134.910156 119.773438 C 135.394531 118.863281 135.878906 117.953125 136.363281 117.046875 C 136.683594 117.109375 137 117.171875 137.316406 117.226562 Z M 137.316406 117.226562 "/>
<path style=" stroke:none;fill-rule:evenodd;fill:rgb(91.372549%,88.627451%,92.156863%);fill-opacity:1;" d="M 117.410156 136.136719 C 126.347656 145.558594 135.316406 154.953125 144.316406 164.316406 C 141.335938 166.449219 138.183594 168.324219 134.863281 169.953125 C 134.769531 169.96875 134.675781 169.953125 134.589844 169.910156 C 124.933594 159.871094 115.328125 149.796875 105.773438 139.683594 C 108.796875 139.238281 111.738281 138.464844 114.589844 137.363281 C 114.742188 137.296875 114.789062 137.191406 114.726562 137.046875 C 114.464844 136.753906 114.179688 136.496094 113.863281 136.273438 C 112.035156 135.464844 110.25 134.585938 108.5 133.636719 C 106.671875 132.566406 105.324219 131.066406 104.453125 129.136719 C 103.953125 127.582031 103.4375 126.039062 102.910156 124.5 C 102.582031 123.992188 102.140625 123.613281 101.589844 123.363281 C 100.746094 123.226562 99.898438 123.195312 99.046875 123.273438 C 98.085938 123.472656 97.433594 124.035156 97.089844 124.953125 C 96.789062 126.203125 96.472656 127.445312 96.136719 128.683594 C 95.894531 128.5 95.683594 128.289062 95.5 128.046875 C 95.710938 126.875 96 125.726562 96.363281 124.589844 C 97.117188 122.96875 98.40625 122.210938 100.226562 122.316406 C 102.128906 122.289062 103.386719 123.171875 104 124.953125 C 104.359375 126.238281 104.753906 127.511719 105.183594 128.773438 C 106.125 130.746094 107.566406 132.246094 109.5 133.273438 C 111.140625 134.0625 112.777344 134.851562 114.410156 135.636719 C 114.914062 135.988281 115.324219 136.429688 115.636719 136.953125 C 116.222656 136.667969 116.8125 136.394531 117.410156 136.136719 Z M 117.410156 136.136719 "/>
<path style=" stroke:none;fill-rule:evenodd;fill:rgb(93.72549%,91.764706%,94.509804%);fill-opacity:1;" d="M 133.316406 122.410156 C 142.164062 131.648438 151.011719 140.890625 159.863281 150.136719 C 157.296875 153.308594 154.449219 156.21875 151.316406 158.863281 C 151.328125 158.796875 151.316406 158.734375 151.273438 158.683594 C 142.507812 149.601562 133.796875 140.480469 125.136719 131.316406 C 125.730469 130.714844 126.367188 130.15625 127.046875 129.636719 C 129.40625 127.433594 131.496094 125.023438 133.316406 122.410156 Z M 133.316406 122.410156 "/>
<path style=" stroke:none;fill-rule:evenodd;fill:rgb(94.117647%,12.941176%,2.352941%);fill-opacity:1;" d="M 105.773438 139.683594 C 100.542969 140.441406 95.363281 140.199219 90.226562 138.953125 C 88.644531 138.570312 87.101562 138.054688 85.589844 137.410156 C 85.847656 136.867188 86.238281 136.457031 86.773438 136.183594 C 88.496094 135.410156 90.191406 134.59375 91.863281 133.726562 C 93.898438 132.554688 95.324219 130.875 96.136719 128.683594 C 96.472656 127.445312 96.789062 126.203125 97.089844 124.953125 C 97.433594 124.035156 98.085938 123.472656 99.046875 123.273438 C 99.898438 123.195312 100.746094 123.226562 101.589844 123.363281 C 102.140625 123.613281 102.582031 123.992188 102.910156 124.5 C 103.4375 126.039062 103.953125 127.582031 104.453125 129.136719 C 105.324219 131.066406 106.671875 132.566406 108.5 133.636719 C 110.25 134.585938 112.035156 135.464844 113.863281 136.273438 C 114.179688 136.496094 114.464844 136.753906 114.726562 137.046875 C 114.789062 137.191406 114.742188 137.296875 114.589844 137.363281 C 111.738281 138.464844 108.796875 139.238281 105.773438 139.683594 Z M 105.773438 139.683594 "/>
<use xlink:href="#surface29" mask="url(#mask8)"/>
<path style=" stroke:none;fill-rule:evenodd;fill:rgb(92.156863%,90.196078%,93.333333%);fill-opacity:1;" d="M 125.136719 131.316406 C 133.796875 140.480469 142.507812 149.601562 151.273438 158.683594 C 151.316406 158.734375 151.328125 158.796875 151.316406 158.863281 C 150.800781 159.347656 150.289062 159.832031 149.773438 160.316406 C 148.640625 161.160156 147.519531 162.023438 146.410156 162.910156 C 145.742188 163.425781 145.042969 163.894531 144.316406 164.316406 C 135.316406 154.953125 126.347656 145.558594 117.410156 136.136719 C 120.15625 134.78125 122.730469 133.171875 125.136719 131.316406 Z M 125.136719 131.316406 "/>
<path style=" stroke:none;fill-rule:evenodd;fill:rgb(89.019608%,85.882353%,90.196078%);fill-opacity:1;" d="M 95.5 128.046875 C 95.683594 128.289062 95.894531 128.5 96.136719 128.683594 C 95.324219 130.875 93.898438 132.554688 91.863281 133.726562 C 90.191406 134.59375 88.496094 135.410156 86.773438 136.183594 C 86.238281 136.457031 85.847656 136.867188 85.589844 137.410156 C 87.101562 138.054688 88.644531 138.570312 90.226562 138.953125 C 90.160156 138.941406 90.097656 138.957031 90.046875 139 C 101.304688 150.820312 112.578125 162.625 123.863281 174.410156 C 122.816406 174.757812 121.753906 175.09375 120.683594 175.410156 C 120.558594 175.421875 120.433594 175.40625 120.316406 175.363281 C 108.019531 162.425781 95.683594 149.519531 83.316406 136.636719 C 83.339844 136.601562 83.371094 136.585938 83.410156 136.589844 C 83.863281 136.773438 84.316406 136.953125 84.773438 137.136719 C 85.070312 136.582031 85.464844 136.113281 85.953125 135.726562 C 87.445312 134.953125 88.960938 134.222656 90.5 133.546875 C 91.152344 133.175781 91.789062 132.78125 92.410156 132.363281 C 93.921875 131.261719 94.949219 129.824219 95.5 128.046875 Z M 95.5 128.046875 "/>
<path style=" stroke:none;fill-rule:evenodd;fill:rgb(89.803922%,87.058824%,90.980392%);fill-opacity:1;" d="M 90.226562 138.953125 C 95.363281 140.199219 100.542969 140.441406 105.773438 139.683594 C 115.328125 149.796875 124.933594 159.871094 134.589844 169.910156 C 134.675781 169.953125 134.769531 169.96875 134.863281 169.953125 C 131.695312 171.570312 128.421875 172.933594 125.046875 174.046875 C 124.664062 174.203125 124.269531 174.324219 123.863281 174.410156 C 112.578125 162.625 101.304688 150.820312 90.046875 139 C 90.097656 138.957031 90.160156 138.941406 90.226562 138.953125 Z M 90.226562 138.953125 "/>
<use xlink:href="#surface32" mask="url(#mask9)"/>
<use xlink:href="#surface35" mask="url(#mask10)"/>
<use xlink:href="#surface38" mask="url(#mask11)"/>
</g>
</svg>
