<svg xmlns="http://www.w3.org/2000/svg" version="1.1" width="150px" height="150px" style="shape-rendering:geometricPrecision; text-rendering:geometricPrecision; image-rendering:optimizeQuality; fill-rule:evenodd; clip-rule:evenodd" xmlns:xlink="http://www.w3.org/1999/xlink" viewBox="0 0 150 150">
  <g>
    <path style="opacity:0.99" fill="#d0c1d6" d="m92.558 16.125 4.088 4.298a59.49 59.49 0 0 0 -29.797 -3.615 55.552 55.552 0 0 0 -2.25 -2.385 62.145 62.145 0 0 1 27.953 1.703Z"/>
  </g>
  <g>
    <path style="opacity:0.989" fill="#d7c6da" d="M64.605 14.422a55.552 55.552 0 0 1 2.25 2.385 70.725 70.725 0 0 0 -6.615 1.365 42.998 42.998 0 0 0 -5.588 1.77 42.818 42.818 0 0 0 -5.588 2.385l-2.183 1.087a40.642 40.642 0 0 1 -1.912 -2.047 60.93 60.93 0 0 1 19.635 -6.952Z"/>
  </g>
  <g>
    <path style="opacity:1" fill="#fefdfe" d="M96.645 20.422a59.175 59.175 0 0 1 28.463 24.068 58.552 58.552 0 0 1 8.49 27.75 62.355 62.355 0 0 1 -0.885 13.365 69.225 69.225 0 0 1 -1.703 6.683 4950.975 4950.975 0 0 1 -13.672 -14.317 0.39 0.39 0 0 1 -0.038 -0.203c0.945 -5.46 -0.742 -9.9 -5.048 -13.328a13.02 13.02 0 0 0 -10.087 -2.287 10.777 10.777 0 0 0 -0.953 -1.087l0.413 -0.135a30.615 30.615 0 0 0 -12.75 -12.683c0.007 -0.053 0 -0.098 -0.038 -0.135a7244.58 7244.58 0 0 1 -28.605 -29.932 70.725 70.725 0 0 1 6.615 -1.365 59.498 59.498 0 0 1 29.797 3.615Z"/>
  </g>
  <g>
    <path style="opacity:0.986" fill="#cdbed3" d="M92.558 16.125a61.282 61.282 0 0 1 32.145 22.77 61.095 61.095 0 0 1 11.625 36.135l-2.73 -2.797a58.47 58.47 0 0 0 -8.49 -27.75 59.175 59.175 0 0 0 -28.463 -24.068l-4.088 -4.298Z"/>
  </g>
  <g>
    <path style="opacity:1" fill="#f9f7fa" d="M60.24 18.172a7244.58 7244.58 0 0 0 28.605 29.932 0.173 0.173 0 0 1 0.038 0.135 30.188 30.188 0 0 0 -6.202 -2.385 57.165 57.165 0 0 1 -1.605 -1.703c-0.03 0.015 -0.038 0.038 -0.038 0.068a7.223 7.223 0 0 0 -3.27 -1.5 7.5 7.5 0 0 0 -1.395 -3.135c-0.788 -0.802 -1.643 -0.885 -2.558 -0.24a1.732 1.732 0 0 0 -0.27 0.307 1.5 1.5 0 0 1 -0.51 -0.413 7378.403 7378.403 0 0 0 -18.375 -19.297 42.998 42.998 0 0 1 5.588 -1.77Z"/>
  </g>
  <g>
    <path style="opacity:1" fill="#f7f5f8" d="M54.645 19.942a7378.403 7378.403 0 0 1 18.375 19.297 1.5 1.5 0 0 0 0.51 0.413 6.202 6.202 0 0 0 -1.297 3.067c-0.975 0.18 -1.882 0.517 -2.73 1.02a6.675 6.675 0 0 1 -1.057 -0.953 3783.57 3783.57 0 0 0 -18.683 -19.567 12.638 12.638 0 0 1 -0.712 -0.885 42.818 42.818 0 0 1 5.588 -2.385Z"/>
  </g>
  <g>
    <path style="opacity:0.987" fill="#ddccdf" d="M44.963 21.375a40.642 40.642 0 0 0 1.912 2.047 85.073 85.073 0 0 0 -3.48 2.115 47.032 47.032 0 0 0 -3.952 2.797c-2.415 1.8 -4.665 3.795 -6.75 6a15.645 15.645 0 0 1 -1.23 1.23 37.793 37.793 0 0 0 -1.912 -1.912 60.72 60.72 0 0 1 15.413 -12.27Z"/>
  </g>
  <g>
    <path style="opacity:1" fill="#f4f1f5" d="M49.057 22.328a12.638 12.638 0 0 0 0.712 0.885 3783.57 3783.57 0 0 1 18.683 19.567 6.675 6.675 0 0 0 1.057 0.953 2.445 2.445 0 0 0 -1.163 1.672 1.522 1.522 0 0 0 0.105 0.51l0.375 0.375a45.24 45.24 0 0 0 2.115 1.02 4.14 4.14 0 0 1 1.942 1.942c0.217 0.758 0.443 1.507 0.682 2.25a1.335 1.335 0 0 0 1.328 0.547c0.698 0.09 1.185 -0.188 1.462 -0.818l0.682 -2.047a4.29 4.29 0 0 1 1.808 -1.808 69.713 69.713 0 0 0 2.25 -1.087c0.42 -0.292 0.563 -0.69 0.443 -1.193a4.26 4.26 0 0 0 -0.51 -0.885c-0.007 -0.03 0.007 -0.053 0.038 -0.068a57.165 57.165 0 0 0 1.605 1.703 0.54 0.54 0 0 0 -0.48 0 1.597 1.597 0 0 1 -0.615 0.922 15.832 15.832 0 0 1 -2.115 1.02 4.14 4.14 0 0 0 -2.355 3.375c-0.51 1.343 -1.478 1.853 -2.895 1.537a1.942 1.942 0 0 1 -1.395 -1.26 37.05 37.05 0 0 1 -0.48 -1.77A3.435 3.435 0 0 0 70.8 48a42.713 42.713 0 0 1 -2.453 -1.23 1.597 1.597 0 0 1 -0.615 -0.922 1.972 1.972 0 0 0 -0.953 0.105 77.168 77.168 0 0 0 -3 0.99L43.395 25.53a85.073 85.073 0 0 1 3.48 -2.115l2.183 -1.087Z"/>
  </g>
  <g>
    <path style="opacity:1" fill="#f2eef4" d="M43.395 25.537 63.78 46.95a48.81 48.81 0 0 0 -4.365 2.183 10.8 10.8 0 0 1 -1.328 -1.23 7593.345 7593.345 0 0 0 -18.645 -19.567 47.032 47.032 0 0 1 3.952 -2.797Z"/>
  </g>
  <g>
    <path style="opacity:1" fill="#efeaf1" d="M39.443 28.328a7593.345 7593.345 0 0 1 18.645 19.567c0.413 0.45 0.855 0.862 1.328 1.23 -2.61 1.612 -4.95 3.57 -7.02 5.865a3.075 3.075 0 0 1 -0.712 -0.615 3810.6 3810.6 0 0 0 -18.75 -19.635 2.055 2.055 0 0 1 -0.24 -0.413c2.085 -2.205 4.335 -4.2 6.75 -6Z"/>
  </g>
  <g>
    <path style="opacity:0.987" fill="#e3d1e4" d="M29.557 33.645a37.793 37.793 0 0 1 1.912 1.912 66.427 66.427 0 0 0 -3.202 3.952 54.983 54.983 0 0 0 -4.567 6.952 55.207 55.207 0 0 0 -3.338 7.02 0.165 0.165 0 0 0 -0.105 0.068 84.795 84.795 0 0 1 -2.01 -2.047 59.145 59.145 0 0 1 11.317 -17.865Z"/>
  </g>
  <g>
    <path style="opacity:1" fill="#ebe6ee" d="M32.693 34.328a2.055 2.055 0 0 0 0.24 0.413 3810.6 3810.6 0 0 1 18.75 19.635 3.075 3.075 0 0 0 0.712 0.615 35.152 35.152 0 0 0 -3.952 5.662 4429.793 4429.793 0 0 1 -20.183 -21.135 66.427 66.427 0 0 1 3.202 -3.952 15.645 15.645 0 0 0 1.23 -1.23Z"/>
  </g>
  <g>
    <path style="opacity:1" fill="#f02106" d="M81.037 44.213a4.26 4.26 0 0 1 0.51 0.885 1.05 1.05 0 0 1 -0.443 1.193 69.713 69.713 0 0 1 -2.25 1.087 4.29 4.29 0 0 0 -1.808 1.808l-0.682 2.047c-0.277 0.63 -0.765 0.907 -1.462 0.818a1.328 1.328 0 0 1 -1.328 -0.547 81.885 81.885 0 0 1 -0.682 -2.25 4.14 4.14 0 0 0 -1.942 -1.942 45.24 45.24 0 0 1 -2.115 -1.02l-0.375 -0.375a1.522 1.522 0 0 1 -0.105 -0.51 2.422 2.422 0 0 1 1.163 -1.672c0.847 -0.503 1.755 -0.84 2.73 -1.02a6.202 6.202 0 0 1 1.297 -3.067 1.732 1.732 0 0 1 0.27 -0.307c0.915 -0.645 1.77 -0.563 2.558 0.24a7.5 7.5 0 0 1 1.395 3.135c1.222 0.225 2.317 0.728 3.27 1.5Z"/>
  </g>
  <g>
    <path style="opacity:1" fill="#e9e2eb" d="M28.26 39.51a4429.793 4429.793 0 0 0 20.183 21.135 1.26 1.26 0 0 1 -0.135 0.24 1.05 1.05 0 0 0 0.48 0.135 287.985 287.985 0 0 0 10.433 1.125c-0.03 -0.007 -0.053 0.007 -0.068 0.038a36.825 36.825 0 0 0 1.365 1.328 192.472 192.472 0 0 1 -13.433 -1.462 13.455 13.455 0 0 0 -7.5 1.193A4697.595 4697.595 0 0 0 24.825 47.76a29.22 29.22 0 0 1 -1.125 -1.297 56.67 56.67 0 0 1 4.567 -6.952Z"/>
  </g>
  <g>
    <path style="opacity:1" fill="#f02005" d="M82.672 45.855a30.188 30.188 0 0 1 6.202 2.385 30.615 30.615 0 0 1 12.75 12.683 13.455 13.455 0 0 0 -0.413 0.135 244.245 244.245 0 0 1 -14.25 1.365 313.155 313.155 0 0 1 -12.75 0.338 231.983 231.983 0 0 1 -15 -0.615 287.985 287.985 0 0 1 -10.433 -1.125 1.073 1.073 0 0 1 -0.48 -0.135 1.26 1.26 0 0 0 0.135 -0.24 35.152 35.152 0 0 1 3.952 -5.662 32.4 32.4 0 0 1 7.02 -5.865 48.81 48.81 0 0 1 4.365 -2.183 77.168 77.168 0 0 1 3 -0.99 2.078 2.078 0 0 1 0.953 -0.105c0.09 0.383 0.3 0.69 0.615 0.922a42.713 42.713 0 0 0 2.453 1.23 3.442 3.442 0 0 1 1.537 1.672 37.05 37.05 0 0 0 0.48 1.77 1.942 1.942 0 0 0 1.395 1.26c1.425 0.315 2.385 -0.195 2.895 -1.537a4.125 4.125 0 0 1 2.355 -3.375 15.832 15.832 0 0 0 2.115 -1.02 1.597 1.597 0 0 0 0.615 -0.922 0.54 0.54 0 0 1 0.48 0Z"/>
  </g>
  <g>
    <path style="opacity:1" fill="#e5dee8" d="M23.692 46.463a29.22 29.22 0 0 0 1.125 1.297 4697.595 4697.595 0 0 1 14.76 15.48c-2.49 1.313 -4.425 3.195 -5.798 5.662L20.01 54.517a13.485 13.485 0 0 1 0.338 -1.02 55.207 55.207 0 0 1 3.338 -7.02Z"/>
  </g>
  <g>
    <path style="opacity:1" fill="#e2d9e5" d="m20.01 54.51 13.77 14.385a13.538 13.538 0 0 0 -0.818 10.163 5.925 5.925 0 0 1 -0.99 -0.885L18.953 64.47a13.717 13.717 0 0 0 -1.462 -1.365c0.57 -2.963 1.41 -5.82 2.52 -8.587Z"/>
  </g>
  <g>
    <path style="opacity:0.99" fill="#ead7e8" d="M18.24 51.51A84.795 84.795 0 0 0 20.25 53.557a0.15 0.15 0 0 1 0.105 -0.068 13.485 13.485 0 0 0 -0.338 1.02 46.29 46.29 0 0 0 -2.52 8.587 54.293 54.293 0 0 0 -1.02 7.163 47.19 47.19 0 0 0 -0.068 7.702v1.297l-2.797 -2.865a59.985 59.985 0 0 1 4.635 -24.885Z"/>
  </g>
  <g>
    <path style="opacity:1" fill="#f8f2f5" d="M101.212 61.057a10.777 10.777 0 0 1 0.953 1.087 158.625 158.625 0 0 1 -13.837 1.432 25.193 25.193 0 0 0 -1.087 -1.125 0.578 0.578 0 0 0 -0.27 -0.038 244.245 244.245 0 0 0 14.25 -1.365Z"/>
  </g>
  <g>
    <path style="opacity:1" fill="#f02005" d="M60.51 63.51a216.712 216.712 0 0 0 12.953 0.48 213.675 213.675 0 0 0 14.865 -0.413 158.625 158.625 0 0 0 13.837 -1.432c3.69 -0.63 7.05 0.128 10.087 2.287 4.305 3.428 5.985 7.875 5.048 13.328a14.58 14.58 0 0 1 -2.453 5.25 13.965 13.965 0 0 1 -4.433 3.615c-2.348 1.14 -4.822 1.575 -7.433 1.297a125.542 125.542 0 0 1 -0.712 -0.135l-1.087 2.047a1859.25 1859.25 0 0 1 -1.193 1.98 34.267 34.267 0 0 1 -4.702 5.423 13.95 13.95 0 0 0 -1.432 1.26 34.425 34.425 0 0 1 -5.798 3.615 26.7 26.7 0 0 0 -1.328 0.615 3.06 3.06 0 0 0 -0.922 -0.99l-3.683 -1.77a7.35 7.35 0 0 1 -3.24 -3.375 54.975 54.975 0 0 1 -0.885 -2.865c-0.458 -1.335 -1.403 -1.995 -2.828 -1.98 -1.365 -0.083 -2.333 0.488 -2.895 1.703a20.617 20.617 0 0 0 -0.645 2.588 6.158 6.158 0 0 1 -2.317 3.24 21.622 21.622 0 0 1 -1.432 0.885 58.605 58.605 0 0 0 -3.412 1.635 3.435 3.435 0 0 0 -0.885 1.057l-1.02 -0.413a30.915 30.915 0 0 1 -14.895 -14.663c-2.385 0.427 -4.71 0.225 -6.99 -0.615a13.342 13.342 0 0 1 -7.702 -8.115 13.545 13.545 0 0 1 0.818 -10.163c1.373 -2.46 3.3 -4.35 5.798 -5.662a13.455 13.455 0 0 1 7.5 -1.193 192.472 192.472 0 0 0 13.433 1.462Z"/>
  </g>
  <g>
    <path style="opacity:1" fill="#f0e7ed" d="M59.213 62.145a231.983 231.983 0 0 0 15 0.615c-0.615 -0.015 -1.23 0 -1.838 0.038a27.023 27.023 0 0 0 1.087 1.193 216.712 216.712 0 0 1 -12.953 -0.48 36.825 36.825 0 0 1 -1.365 -1.328c0.015 -0.03 0.038 -0.038 0.068 -0.038Z"/>
  </g>
  <g>
    <path style="opacity:1" fill="#f4edf1" d="M86.963 62.422a0.578 0.578 0 0 1 0.27 0.038 25.193 25.193 0 0 1 1.087 1.125 215.903 215.903 0 0 1 -14.865 0.413 27.023 27.023 0 0 1 -1.087 -1.193 25.125 25.125 0 0 1 1.838 -0.038 313.155 313.155 0 0 0 12.75 -0.338Z"/>
  </g>
  <g>
    <path style="opacity:1" fill="#dfd6e3" d="M17.49 63.105a13.717 13.717 0 0 1 1.462 1.365l13.02 13.703a5.603 5.603 0 0 0 0.99 0.885c1.38 3.833 3.945 6.54 7.702 8.115 -0.03 -0.007 -0.053 0.007 -0.068 0.038a41201.347 41201.347 0 0 1 43.635 45.713 51.78 51.78 0 0 1 -7.298 0.682 40182.075 40182.075 0 0 0 -60.48 -63.338 54.293 54.293 0 0 1 1.02 -7.163Z"/>
  </g>
  <g>
    <path style="opacity:1" fill="#efebf1" d="M75.99 66.578a12.345 12.345 0 0 1 1.02 1.163c-4.185 0.015 -8.363 0 -12.547 -0.038l-1.087 -1.087c4.208 -0.038 8.408 -0.045 12.615 -0.038Z"/>
  </g>
  <g>
    <path style="opacity:1" fill="#0e202f" d="M93.922 67.808a2.618 2.618 0 0 1 2.213 1.838c0.045 3.502 0.045 6.998 0 10.5a3.42 3.42 0 0 0 -0.105 0.48 2.61 2.61 0 0 1 -2.385 1.5c-12.66 0.015 -25.32 0 -37.98 -0.038a2.43 2.43 0 0 1 -1.875 -1.942 408.353 408.353 0 0 1 0 -10.5 2.52 2.52 0 0 1 1.875 -1.808c12.75 -0.038 25.5 -0.045 38.25 -0.038Z"/>
  </g>
  <g>
    <path style="opacity:1" fill="#ddd3e1" d="M16.462 70.26a40182.075 40182.075 0 0 1 60.48 63.338 45.487 45.487 0 0 1 -7.702 -0.27c0.053 0.007 0.098 0 0.135 -0.038a30304.118 30304.118 0 0 0 -52.943 -55.463 0.165 0.165 0 0 0 -0.038 0.135 47.182 47.182 0 0 1 0.068 -7.702Z"/>
  </g>
  <g>
    <path style="opacity:1" fill="#037d46" d="M62.828 71.287c2.325 -0.225 3.817 0.772 4.463 3 0.188 2.257 -0.802 3.697 -2.963 4.327a3.705 3.705 0 0 1 -3.713 -1.462c-1.155 -1.98 -0.87 -3.72 0.855 -5.213a5.97 5.97 0 0 1 1.365 -0.645Z"/>
  </g>
  <g>
    <path style="opacity:1" fill="#037d46" d="M85.537 71.287c2.205 -0.21 3.675 0.72 4.395 2.797 0.3 2.333 -0.66 3.84 -2.895 4.537 -2.152 0.232 -3.6 -0.66 -4.327 -2.692 -0.33 -2.333 0.608 -3.877 2.828 -4.635Z"/>
  </g>
  <g>
    <path style="opacity:1" fill="#f2eff4" d="M75.99 66.578h18.067c1.672 0.255 2.775 1.185 3.308 2.797 0.112 3.585 0.135 7.178 0.068 10.77a4.905 4.905 0 0 1 -0.51 1.432l-0.885 -0.953a3.667 3.667 0 0 1 0.105 -0.48c0.045 -3.502 0.045 -6.998 0 -10.5a2.61 2.61 0 0 0 -2.213 -1.838c-5.625 -0.068 -11.258 -0.09 -16.913 -0.068a12.345 12.345 0 0 0 -1.02 -1.163Z"/>
  </g>
  <g>
    <path style="opacity:0.991" fill="#d2c3d7" d="m133.605 72.24 2.73 2.797a57.953 57.953 0 0 1 -1.365 13.02 14.183 14.183 0 0 1 -2.25 -2.453c0.772 -4.425 1.073 -8.88 0.885 -13.365Z"/>
  </g>
  <g>
    <path style="opacity:1" fill="#06fc8c" d="M63.037 72.578c1.373 -0.158 2.34 0.39 2.895 1.635 0.292 1.425 -0.217 2.438 -1.537 3.037a2.422 2.422 0 0 1 -2.625 -0.712c-0.855 -1.237 -0.75 -2.385 0.307 -3.442 0.315 -0.188 0.63 -0.36 0.953 -0.51Z"/>
  </g>
  <g>
    <path style="opacity:1" fill="#06fb8c" d="M85.74 72.578c1.942 -0.112 2.933 0.795 2.963 2.73 -0.398 1.53 -1.388 2.205 -2.963 2.01 -1.35 -0.458 -1.95 -1.403 -1.808 -2.828a2.662 2.662 0 0 1 1.808 -1.912Z"/>
  </g>
  <g>
    <path style="opacity:1" fill="#e2d5e0" d="M41.557 67.74a8.4 8.4 0 0 1 3.615 0.645c0.352 0.143 0.675 0.338 0.953 0.578a28.703 28.703 0 0 0 -0.51 8.663 30.225 30.225 0 0 0 0.443 3.202l-0.068 0.27c-2.888 1.59 -5.655 1.425 -8.317 -0.51 -2.752 -2.535 -3.375 -5.527 -1.875 -8.962 1.29 -2.243 3.21 -3.532 5.76 -3.885Z"/>
  </g>
  <g>
    <path style="opacity:1" fill="#711003" d="M41.49 68.355c1.335 -0.06 2.61 0.203 3.817 0.788a0.465 0.465 0 0 1 0.068 0.203c-0.45 2.558 -0.6 5.137 -0.443 7.74l0.413 3.683c-2.692 1.313 -5.205 1.028 -7.538 -0.855 -2.1 -2.107 -2.677 -4.575 -1.74 -7.395a6.9 6.9 0 0 1 5.423 -4.162Z"/>
  </g>
  <g>
    <path style="opacity:1" fill="#dbd0e0" d="M69.24 133.328a37.568 37.568 0 0 1 -1.297 -0.068 34.373 34.373 0 0 1 -3.202 -0.547c0.03 0.007 0.053 -0.007 0.068 -0.038l-47.963 -50.287a0.165 0.165 0 0 0 -0.038 0.135 98.438 98.438 0 0 1 -0.413 -3.27v-1.297c-0.007 -0.053 0 -0.098 0.038 -0.135a30304.118 30304.118 0 0 1 52.943 55.463 0.173 0.173 0 0 1 -0.135 0.038Z"/>
  </g>
  <g>
    <path style="opacity:1" fill="#f7f0f2" d="M107.078 67.74c3.772 -0.03 6.308 1.718 7.605 5.25 0.75 3.495 -0.352 6.232 -3.308 8.212a7.17 7.17 0 0 1 -7.433 -0.105l-0.068 -0.27c0.54 -2.888 0.69 -5.798 0.443 -8.73a20.985 20.985 0 0 0 -0.51 -3.135 5.542 5.542 0 0 1 1.432 -0.788c0.615 -0.188 1.23 -0.338 1.838 -0.443Z"/>
  </g>
  <g>
    <path style="opacity:1" fill="#711003" d="M107.01 68.355c3.375 -0.105 5.708 1.395 6.99 4.5a6.803 6.803 0 0 1 -1.875 7.058c-2.31 1.86 -4.815 2.16 -7.5 0.885a0.637 0.637 0 0 1 -0.068 -0.24 34.328 34.328 0 0 0 0.443 -7.913c-0.112 -1.163 -0.247 -2.325 -0.413 -3.48 0.772 -0.405 1.575 -0.675 2.422 -0.818Z"/>
  </g>
  <g>
    <path style="opacity:1" fill="#f9f7fa" d="M117.308 77.76c-0.007 0.075 0 0.143 0.038 0.203 4.545 4.785 9.105 9.563 13.672 14.317a56.903 56.903 0 0 1 -1.98 5.52 2941.553 2941.553 0 0 1 -14.183 -14.797c1.17 -1.59 1.987 -3.338 2.453 -5.25Z"/>
  </g>
  <g>
    <path style="opacity:1" fill="#e1d7df" d="M94.058 66.578h-18.067c-4.208 -0.015 -8.408 0 -12.615 0.038l1.087 1.087a1166.25 1166.25 0 0 0 12.547 0.038c5.647 -0.022 11.288 0 16.913 0.068 -12.75 -0.015 -25.5 0 -38.25 0.038a2.52 2.52 0 0 0 -1.875 1.808c-0.045 3.502 -0.045 6.998 0 10.5a2.43 2.43 0 0 0 1.875 1.942c12.66 0.038 25.32 0.045 37.98 0.038 -8.19 0.06 -16.395 0.09 -24.615 0.105a18.367 18.367 0 0 0 1.02 1.087c8.002 0.038 15.997 0.045 24 0.038 -6.375 0.045 -12.765 0.068 -19.163 0.068 -6.502 0.007 -13.005 -0.022 -19.5 -0.105a3.75 3.75 0 0 1 -2.895 -3.173 397.92 397.92 0 0 1 0 -10.365 3.765 3.765 0 0 1 2.895 -3.173c6.495 -0.083 12.997 -0.112 19.5 -0.105 6.397 0 12.788 0.022 19.163 0.068Z"/>
  </g>
  <g>
    <path style="opacity:1" fill="#eeeaf0" d="m96.038 80.625 0.885 0.953a3.75 3.75 0 0 1 -2.865 1.77c-8.002 0.015 -15.997 0 -24 -0.038a18.367 18.367 0 0 1 -1.02 -1.087c8.212 -0.015 16.418 -0.045 24.615 -0.105a2.61 2.61 0 0 0 2.385 -1.5Z"/>
  </g>
  <g>
    <path style="opacity:1" fill="#d9cfdf" d="M64.74 132.712a34.62 34.62 0 0 1 -4.98 -1.087c0.03 0.007 0.053 -0.007 0.068 -0.038a19292.055 19292.055 0 0 1 -42.098 -44.078c-0.03 0.015 -0.038 0.038 -0.038 0.068a36.615 36.615 0 0 1 -0.885 -5.048c-0.007 -0.053 0 -0.098 0.038 -0.135l47.963 50.287c-0.015 0.03 -0.038 0.038 -0.068 0.038Z"/>
  </g>
  <g>
    <path style="opacity:1" fill="#f7f5f8" d="M114.855 83.01c4.71 4.95 9.442 9.877 14.183 14.797a62.325 62.325 0 0 1 -2.73 5.52c-4.905 -5.1 -9.803 -10.215 -14.692 -15.337a33.742 33.742 0 0 1 -1.193 -1.365c1.725 -0.9 3.202 -2.1 4.433 -3.615Z"/>
  </g>
  <g>
    <path style="opacity:0.989" fill="#d7c6da" d="M132.712 85.605c0.645 0.9 1.395 1.718 2.25 2.453a61.995 61.995 0 0 1 -7.837 19.365 40.657 40.657 0 0 1 -1.98 -1.98c0.367 -0.712 0.758 -1.417 1.163 -2.115a62.325 62.325 0 0 0 2.73 -5.52 56.903 56.903 0 0 0 1.98 -5.52c0.682 -2.205 1.252 -4.433 1.703 -6.683Z"/>
  </g>
  <g>
    <path style="opacity:1" fill="#f4f1f5" d="M110.422 86.625c0.383 0.465 0.78 0.915 1.193 1.365 4.89 5.13 9.788 10.238 14.692 15.337a57.938 57.938 0 0 0 -1.163 2.115c-0.735 1.125 -1.485 2.235 -2.25 3.338a4358.325 4358.325 0 0 1 -19.913 -20.865c2.603 0.277 5.085 -0.15 7.433 -1.297Z"/>
  </g>
  <g>
    <path style="opacity:1" fill="#e1d8e5" d="M40.672 87.172c2.272 0.833 4.605 1.042 6.99 0.615a30.915 30.915 0 0 0 14.895 14.663c-0.03 -0.007 -0.053 0.007 -0.068 0.038 9.277 9.66 18.525 19.343 27.75 29.047a0.675 0.675 0 0 0 0.27 0.038 51.3 51.3 0 0 1 -6.27 1.365 41201.347 41201.347 0 0 0 -43.635 -45.713c0.015 -0.03 0.038 -0.038 0.068 -0.038Z"/>
  </g>
  <g>
    <path style="opacity:1" fill="#d7ccdd" d="M59.76 131.625c-14.663 -4.125 -26.13 -12.563 -34.395 -25.297a57.36 57.36 0 0 1 -7.673 -18.75c-0.007 -0.03 0.007 -0.053 0.038 -0.068a19292.055 19292.055 0 0 0 42.098 44.078c-0.015 0.03 -0.038 0.038 -0.068 0.038Z"/>
  </g>
  <g>
    <path style="opacity:1" fill="#f2eef4" d="M102.99 87.922c6.615 6.975 13.253 13.935 19.913 20.865a40.523 40.523 0 0 1 -3 3.817l-19.913 -20.797a1859.25 1859.25 0 0 0 1.193 -1.98l1.087 -2.047 0.712 0.135Z"/>
  </g>
  <g>
    <path style="opacity:1" fill="#e9e2eb" d="M88.058 102.105a4474.425 4474.425 0 0 0 20.183 21.135 50.25 50.25 0 0 1 -7.087 4.23 0.307 0.307 0 0 1 -0.203 -0.038 3364.943 3364.943 0 0 1 -21.615 -22.672 31.05 31.05 0 0 0 6.615 -1.74c0.112 -0.053 0.15 -0.128 0.105 -0.24a3.907 3.907 0 0 0 -0.645 -0.578 54.953 54.953 0 0 1 -4.02 -1.98 7.29 7.29 0 0 1 -3.037 -3.375c-0.375 -1.163 -0.765 -2.325 -1.163 -3.48a2.28 2.28 0 0 0 -0.99 -0.855 7.553 7.553 0 0 0 -1.912 -0.068 1.875 1.875 0 0 0 -1.462 1.26c-0.225 0.938 -0.465 1.868 -0.712 2.797a2.422 2.422 0 0 1 -0.48 -0.48c0.158 -0.877 0.375 -1.74 0.645 -2.588a2.76 2.76 0 0 1 2.895 -1.703c1.425 -0.022 2.37 0.637 2.828 1.98 0.27 0.968 0.563 1.92 0.885 2.865a7.275 7.275 0 0 0 3.24 3.375l3.683 1.77c0.375 0.262 0.682 0.593 0.922 0.99a34.95 34.95 0 0 1 1.328 -0.615Z"/>
  </g>
  <g>
    <path style="opacity:1" fill="#efeaf1" d="m99.99 91.808 19.913 20.797a48.975 48.975 0 0 1 -6.413 6.548c0.007 -0.053 0 -0.098 -0.038 -0.135a2762.73 2762.73 0 0 1 -19.605 -20.52c0.45 -0.45 0.922 -0.87 1.432 -1.26 1.77 -1.65 3.338 -3.458 4.702 -5.423Z"/>
  </g>
  <g>
    <path style="opacity:1" fill="#f02106" d="M79.328 104.76a30.398 30.398 0 0 1 -11.663 -0.547 22.297 22.297 0 0 1 -3.48 -1.163 1.987 1.987 0 0 1 0.885 -0.922 73.605 73.605 0 0 0 3.817 -1.838 7.043 7.043 0 0 0 3.202 -3.787c0.255 -0.93 0.488 -1.86 0.712 -2.797a1.875 1.875 0 0 1 1.462 -1.26 7.433 7.433 0 0 1 1.912 0.068 2.28 2.28 0 0 1 0.99 0.855c0.398 1.155 0.78 2.31 1.163 3.48a7.29 7.29 0 0 0 3.037 3.375 54.953 54.953 0 0 0 4.02 1.98c0.232 0.165 0.45 0.36 0.645 0.578 0.045 0.112 0.007 0.188 -0.105 0.24a30.81 30.81 0 0 1 -6.615 1.74Z"/>
  </g>
  <g>
    <path style="opacity:0.985" fill="#f0dced" d="m13.605 76.395 2.797 2.865c0.12 1.103 0.255 2.19 0.413 3.27 0.18 1.71 0.473 3.39 0.885 5.048a57.36 57.36 0 0 0 7.673 18.75c8.265 12.735 19.732 21.165 34.395 25.297a34.62 34.62 0 0 0 4.98 1.087c1.05 0.232 2.123 0.413 3.202 0.547l2.73 2.933c-13.77 -1.042 -25.838 -6.06 -36.203 -15.038 -11.475 -10.26 -18.285 -23.07 -20.422 -38.422a57.795 57.795 0 0 1 -0.443 -6.337Z"/>
  </g>
  <g>
    <path style="opacity:1" fill="#ebe6ee" d="M93.855 98.49a2762.73 2762.73 0 0 0 19.605 20.52 0.173 0.173 0 0 1 0.038 0.135l-1.163 1.087a102.525 102.525 0 0 0 -2.52 1.942 14.707 14.707 0 0 1 -1.567 1.057 4474.425 4474.425 0 0 1 -20.183 -21.135 34.425 34.425 0 0 0 5.798 -3.615Z"/>
  </g>
  <g>
    <path style="opacity:1" fill="#e3dbe6" d="M71.625 96.038a2.422 2.422 0 0 0 0.48 0.48 7.125 7.125 0 0 1 -3.202 3.787 73.605 73.605 0 0 1 -3.817 1.838 1.92 1.92 0 0 0 -0.885 0.922c1.133 0.48 2.295 0.87 3.48 1.163 -0.053 -0.007 -0.098 0 -0.135 0.038 8.445 8.865 16.898 17.715 25.365 26.557a80.25 80.25 0 0 1 -2.385 0.75 0.555 0.555 0 0 1 -0.27 -0.038c-9.225 -9.705 -18.473 -19.388 -27.75 -29.047 0.015 -0.03 0.038 -0.038 0.068 -0.038l1.02 0.413a3.435 3.435 0 0 1 0.885 -1.057 58.605 58.605 0 0 1 3.412 -1.635c0.488 -0.277 0.968 -0.578 1.432 -0.885a6.158 6.158 0 0 0 2.317 -3.24Z"/>
  </g>
  <g>
    <path style="opacity:1" fill="#e5dee8" d="M67.672 104.212a30.398 30.398 0 0 0 11.663 0.547 3364.943 3364.943 0 0 0 21.615 22.672 0.39 0.39 0 0 0 0.203 0.038 52.073 52.073 0 0 1 -7.365 3.067 4.995 4.995 0 0 1 -0.885 0.27A14200.208 14200.208 0 0 1 67.537 104.25a0.173 0.173 0 0 1 0.135 -0.038Z"/>
  </g>
  <g>
    <path style="opacity:0.987" fill="#ddccdf" d="M125.145 105.442c0.637 0.682 1.29 1.343 1.98 1.98a62.813 62.813 0 0 1 -12.953 14.797 37.553 37.553 0 0 1 -1.838 -1.98l1.163 -1.087c2.348 -1.98 4.485 -4.162 6.413 -6.548a40.523 40.523 0 0 0 3 -3.817c0.765 -1.103 1.515 -2.22 2.25 -3.338Z"/>
  </g>
  <g>
    <path style="opacity:0.987" fill="#e3d1e4" d="M112.328 120.24c0.585 0.682 1.2 1.335 1.838 1.98a60.323 60.323 0 0 1 -18.337 10.5 46.5 46.5 0 0 1 -2.047 -2.183 52.073 52.073 0 0 0 7.365 -3.067 50.25 50.25 0 0 0 7.087 -4.23c0.547 -0.315 1.065 -0.667 1.567 -1.057a86.85 86.85 0 0 1 2.52 -1.942Z"/>
  </g>
  <g>
    <path style="opacity:0.991" fill="#ead7e8" d="M93.787 130.538a46.5 46.5 0 0 0 2.047 2.183 60.443 60.443 0 0 1 -25.162 3.48l-2.73 -2.933c0.435 0.03 0.862 0.053 1.297 0.068 2.55 0.307 5.123 0.398 7.702 0.27a51.675 51.675 0 0 0 7.298 -0.682 50.43 50.43 0 0 0 8.655 -2.115 5.04 5.04 0 0 0 0.885 -0.27Z"/>
  </g>
</svg>
