<?xml version="1.0" encoding="UTF-8"?>
<!DOCTYPE svg PUBLIC "-//W3C//DTD SVG 1.1//EN" "http://www.w3.org/Graphics/SVG/1.1/DTD/svg11.dtd">
<svg xmlns="http://www.w3.org/2000/svg" version="1.1" width="2200px" height="2200px" style="shape-rendering:geometricPrecision; text-rendering:geometricPrecision; image-rendering:optimizeQuality; fill-rule:evenodd; clip-rule:evenodd" xmlns:xlink="http://www.w3.org/1999/xlink">
<g><path style="opacity:0.99" fill="#d0c1d6" d="M 1357.5,236.5 C 1377.5,257.5 1397.5,278.5 1417.5,299.5C 1276.45,244.493 1130.78,226.827 980.5,246.5C 969.866,234.531 958.866,222.865 947.5,211.5C 1086.13,188.655 1222.8,196.988 1357.5,236.5 Z"/></g>
<g><path style="opacity:0.989" fill="#d7c6da" d="M 947.5,211.5 C 958.866,222.865 969.866,234.531 980.5,246.5C 947.843,251.623 915.51,258.29 883.5,266.5C 855.468,273.334 828.135,282.001 801.5,292.5C 773.355,302.217 746.021,313.883 719.5,327.5C 708.833,332.833 698.167,338.167 687.5,343.5C 677.828,333.827 668.494,323.827 659.5,313.5C 749.553,263.036 845.553,229.036 947.5,211.5 Z"/></g>
<g><path style="opacity:1" fill="#fefdfe" d="M 1417.5,299.5 C 1594.73,372.238 1733.9,489.904 1835,652.5C 1910.62,777.551 1952.12,913.217 1959.5,1059.5C 1962.21,1125.31 1957.88,1190.64 1946.5,1255.5C 1939.84,1288.51 1931.5,1321.17 1921.5,1353.5C 1854.53,1283.7 1787.7,1213.7 1721,1143.5C 1720.52,1142.55 1720.35,1141.55 1720.5,1140.5C 1734.33,1060.46 1709.66,995.293 1646.5,945C 1601.9,913.394 1552.57,902.228 1498.5,911.5C 1494.21,905.871 1489.54,900.537 1484.5,895.5C 1486.37,894.835 1488.37,894.169 1490.5,893.5C 1446.76,812.76 1384.43,750.76 1303.5,707.5C 1303.63,706.761 1303.46,706.094 1303,705.5C 1162.7,559.517 1022.87,413.184 883.5,266.5C 915.51,258.29 947.843,251.623 980.5,246.5C 1130.78,226.827 1276.45,244.493 1417.5,299.5 Z"/></g>
<g><path style="opacity:0.986" fill="#cdbed3" d="M 1357.5,236.5 C 1551.7,296.131 1708.87,407.464 1829,570.5C 1941.98,728.635 1998.82,905.301 1999.5,1100.5C 1986.17,1086.83 1972.83,1073.17 1959.5,1059.5C 1952.12,913.217 1910.62,777.551 1835,652.5C 1733.9,489.904 1594.73,372.238 1417.5,299.5C 1397.5,278.5 1377.5,257.5 1357.5,236.5 Z"/></g>
<g><path style="opacity:1" fill="#f9f7fa" d="M 883.5,266.5 C 1022.87,413.184 1162.7,559.517 1303,705.5C 1303.46,706.094 1303.63,706.761 1303.5,707.5C 1274.47,692.489 1244.14,680.823 1212.5,672.5C 1204.51,664.338 1196.67,656.005 1189,647.5C 1188.6,647.728 1188.43,648.062 1188.5,648.5C 1174.44,637.137 1158.44,629.803 1140.5,626.5C 1137.17,609.51 1130.33,594.177 1120,580.5C 1108.42,568.716 1095.92,567.55 1082.5,577C 1080.96,578.371 1079.63,579.871 1078.5,581.5C 1075.61,580.118 1073.11,578.118 1071,575.5C 981.328,480.995 891.494,386.661 801.5,292.5C 828.135,282.001 855.468,273.334 883.5,266.5 Z"/></g>
<g><path style="opacity:1" fill="#f7f5f8" d="M 801.5,292.5 C 891.494,386.661 981.328,480.995 1071,575.5C 1073.11,578.118 1075.61,580.118 1078.5,581.5C 1068.1,594.694 1061.76,609.694 1059.5,626.5C 1045.25,629.138 1031.92,634.138 1019.5,641.5C 1013.93,637.433 1008.76,632.766 1004,627.5C 913.031,531.53 821.698,435.864 730,340.5C 726.263,336.273 722.763,331.94 719.5,327.5C 746.021,313.883 773.355,302.217 801.5,292.5 Z"/></g>
<g><path style="opacity:0.987" fill="#ddccdf" d="M 659.5,313.5 C 668.494,323.827 677.828,333.827 687.5,343.5C 670.237,353.436 653.237,363.77 636.5,374.5C 616.427,387.196 597.094,400.862 578.5,415.5C 543.115,441.869 510.115,471.203 479.5,503.5C 473.86,509.806 467.86,515.806 461.5,521.5C 452.527,511.86 443.194,502.527 433.5,493.5C 499.251,421.041 574.584,361.041 659.5,313.5 Z"/></g>
<g><path style="opacity:1" fill="#f4f1f5" d="M 719.5,327.5 C 722.763,331.94 726.263,336.273 730,340.5C 821.698,435.864 913.031,531.53 1004,627.5C 1008.76,632.766 1013.93,637.433 1019.5,641.5C 1010.25,647.167 1004.58,655.333 1002.5,666C 1002.57,668.591 1003.07,671.091 1004,673.5C 1005.83,675.333 1007.67,677.167 1009.5,679C 1019.68,684.256 1030.01,689.256 1040.5,694C 1053.24,700.281 1062.74,709.781 1069,722.5C 1072.18,733.574 1075.52,744.574 1079,755.5C 1083.9,761.968 1090.4,764.635 1098.5,763.5C 1108.76,764.791 1115.93,760.791 1120,751.5C 1123.33,741.483 1126.67,731.483 1130,721.5C 1136.17,710 1145,701.167 1156.5,695C 1167.62,689.852 1178.62,684.519 1189.5,679C 1195.61,674.667 1197.78,668.834 1196,661.5C 1194.01,656.845 1191.51,652.511 1188.5,648.5C 1188.43,648.062 1188.6,647.728 1189,647.5C 1196.67,656.005 1204.51,664.338 1212.5,672.5C 1210.14,671.425 1207.81,671.425 1205.5,672.5C 1204.12,678.085 1201.12,682.585 1196.5,686C 1186.55,691.763 1176.21,696.763 1165.5,701C 1145.27,711.265 1133.77,727.765 1131,750.5C 1123.52,770.16 1109.36,777.66 1088.5,773C 1078.5,770.33 1071.66,764.163 1068,754.5C 1065.46,745.909 1063.12,737.242 1061,728.5C 1056.28,717.778 1048.78,709.611 1038.5,704C 1026.29,698.377 1014.29,692.377 1002.5,686C 997.875,682.585 994.875,678.085 993.5,672.5C 988.807,671.863 984.14,672.363 979.5,674C 964.699,678.545 950.032,683.378 935.5,688.5C 835.833,583.833 736.167,479.167 636.5,374.5C 653.237,363.77 670.237,353.436 687.5,343.5C 698.167,338.167 708.833,332.833 719.5,327.5 Z"/></g>
<g><path style="opacity:1" fill="#f2eef4" d="M 636.5,374.5 C 736.167,479.167 835.833,583.833 935.5,688.5C 913.617,698.108 892.283,708.775 871.5,720.5C 864.59,715.096 858.09,709.096 852,702.5C 760.994,606.661 669.828,510.995 578.5,415.5C 597.094,400.862 616.427,387.196 636.5,374.5 Z"/></g>
<g><path style="opacity:1" fill="#efeaf1" d="M 578.5,415.5 C 669.828,510.995 760.994,606.661 852,702.5C 858.09,709.096 864.59,715.096 871.5,720.5C 833.246,744.175 798.912,772.842 768.5,806.5C 764.598,804.107 761.098,801.107 758,797.5C 666.698,701.197 575.031,605.197 483,509.5C 481.579,507.595 480.412,505.595 479.5,503.5C 510.115,471.203 543.115,441.869 578.5,415.5 Z"/></g>
<g><path style="opacity:0.987" fill="#e3d1e4" d="M 433.5,493.5 C 443.194,502.527 452.527,511.86 461.5,521.5C 445.075,540.254 429.409,559.587 414.5,579.5C 389.694,611.752 367.361,645.752 347.5,681.5C 328.777,714.615 312.444,748.948 298.5,784.5C 297.883,784.611 297.383,784.944 297,785.5C 286.937,775.605 277.104,765.605 267.5,755.5C 307.279,657.855 362.613,570.522 433.5,493.5 Z"/></g>
<g><path style="opacity:1" fill="#ebe6ee" d="M 479.5,503.5 C 480.412,505.595 481.579,507.595 483,509.5C 575.031,605.197 666.698,701.197 758,797.5C 761.098,801.107 764.598,804.107 768.5,806.5C 746.457,832.244 727.124,859.91 710.5,889.5C 611.496,786.496 512.83,683.163 414.5,579.5C 429.409,559.587 445.075,540.254 461.5,521.5C 467.86,515.806 473.86,509.806 479.5,503.5 Z"/></g>
<g><path style="opacity:1" fill="#f02106" d="M 1188.5,648.5 C 1191.51,652.511 1194.01,656.845 1196,661.5C 1197.78,668.834 1195.61,674.667 1189.5,679C 1178.62,684.519 1167.62,689.852 1156.5,695C 1145,701.167 1136.17,710 1130,721.5C 1126.67,731.483 1123.33,741.483 1120,751.5C 1115.93,760.791 1108.76,764.791 1098.5,763.5C 1090.4,764.635 1083.9,761.968 1079,755.5C 1075.52,744.574 1072.18,733.574 1069,722.5C 1062.74,709.781 1053.24,700.281 1040.5,694C 1030.01,689.256 1019.68,684.256 1009.5,679C 1007.67,677.167 1005.83,675.333 1004,673.5C 1003.07,671.091 1002.57,668.591 1002.5,666C 1004.58,655.333 1010.25,647.167 1019.5,641.5C 1031.92,634.138 1045.25,629.138 1059.5,626.5C 1061.76,609.694 1068.1,594.694 1078.5,581.5C 1079.63,579.871 1080.96,578.371 1082.5,577C 1095.92,567.55 1108.42,568.716 1120,580.5C 1130.33,594.177 1137.17,609.51 1140.5,626.5C 1158.44,629.803 1174.44,637.137 1188.5,648.5 Z"/></g>
<g><path style="opacity:1" fill="#e9e2eb" d="M 414.5,579.5 C 512.83,683.163 611.496,786.496 710.5,889.5C 709.972,890.721 709.305,891.887 708.5,893C 710.623,894.194 712.957,894.86 715.5,895C 766.547,901.445 817.547,906.945 868.5,911.5C 868.062,911.435 867.728,911.601 867.5,912C 874.14,918.81 880.806,925.31 887.5,931.5C 821.581,926.639 755.914,919.472 690.5,910C 652.104,905.246 615.437,911.079 580.5,927.5C 508.537,851.702 436.371,776.036 364,700.5C 358.268,694.275 352.768,687.942 347.5,681.5C 367.361,645.752 389.694,611.752 414.5,579.5 Z"/></g>
<g><path style="opacity:1" fill="#f02005" d="M 1212.5,672.5 C 1244.14,680.823 1274.47,692.489 1303.5,707.5C 1384.43,750.76 1446.76,812.76 1490.5,893.5C 1488.37,894.169 1486.37,894.835 1484.5,895.5C 1414.9,904.221 1345.23,910.888 1275.5,915.5C 1213.2,918.436 1150.87,920.103 1088.5,920.5C 1015.23,919.88 941.894,916.88 868.5,911.5C 817.547,906.945 766.547,901.445 715.5,895C 712.957,894.86 710.623,894.194 708.5,893C 709.305,891.887 709.972,890.721 710.5,889.5C 727.124,859.91 746.457,832.244 768.5,806.5C 798.912,772.842 833.246,744.175 871.5,720.5C 892.283,708.775 913.617,698.108 935.5,688.5C 950.032,683.378 964.699,678.545 979.5,674C 984.14,672.363 988.807,671.863 993.5,672.5C 994.875,678.085 997.875,682.585 1002.5,686C 1014.29,692.377 1026.29,698.377 1038.5,704C 1048.78,709.611 1056.28,717.778 1061,728.5C 1063.12,737.242 1065.46,745.909 1068,754.5C 1071.66,764.163 1078.5,770.33 1088.5,773C 1109.36,777.66 1123.52,770.16 1131,750.5C 1133.77,727.765 1145.27,711.265 1165.5,701C 1176.21,696.763 1186.55,691.763 1196.5,686C 1201.12,682.585 1204.12,678.085 1205.5,672.5C 1207.81,671.425 1210.14,671.425 1212.5,672.5 Z"/></g>
<g><path style="opacity:1" fill="#e5dee8" d="M 347.5,681.5 C 352.768,687.942 358.268,694.275 364,700.5C 436.371,776.036 508.537,851.702 580.5,927.5C 543.937,946.729 515.604,974.396 495.5,1010.5C 428.167,940.167 360.833,869.833 293.5,799.5C 294.965,794.438 296.632,789.438 298.5,784.5C 312.444,748.948 328.777,714.615 347.5,681.5 Z"/></g>
<g><path style="opacity:1" fill="#e2d9e5" d="M 293.5,799.5 C 360.833,869.833 428.167,940.167 495.5,1010.5C 472.109,1058.56 468.109,1108.23 483.5,1159.5C 478.53,1156.07 473.697,1151.74 469,1146.5C 405.333,1079.5 341.667,1012.5 278,945.5C 271.244,938.239 264.078,931.572 256.5,925.5C 264.84,882.105 277.173,840.105 293.5,799.5 Z"/></g>
<g><path style="opacity:0.99" fill="#ead7e8" d="M 267.5,755.5 C 277.104,765.605 286.937,775.605 297,785.5C 297.383,784.944 297.883,784.611 298.5,784.5C 296.632,789.438 294.965,794.438 293.5,799.5C 277.173,840.105 264.84,882.105 256.5,925.5C 249.172,960.128 244.172,995.128 241.5,1030.5C 238.067,1068.29 237.734,1105.96 240.5,1143.5C 240.5,1149.83 240.5,1156.17 240.5,1162.5C 226.833,1148.5 213.167,1134.5 199.5,1120.5C 196.199,993.972 218.865,872.305 267.5,755.5 Z"/></g>
<g><path style="opacity:1" fill="#f8f2f5" d="M 1484.5,895.5 C 1489.54,900.537 1494.21,905.871 1498.5,911.5C 1431.17,921.466 1363.51,928.466 1295.5,932.5C 1290.37,926.869 1285.04,921.369 1279.5,916C 1278.21,915.51 1276.87,915.343 1275.5,915.5C 1345.23,910.888 1414.9,904.221 1484.5,895.5 Z"/></g>
<g><path style="opacity:1" fill="#f02005" d="M 887.5,931.5 C 950.761,935.728 1014.09,938.061 1077.5,938.5C 1150.24,939.003 1222.9,937.003 1295.5,932.5C 1363.51,928.466 1431.17,921.466 1498.5,911.5C 1552.57,902.228 1601.9,913.394 1646.5,945C 1709.66,995.293 1734.33,1060.46 1720.5,1140.5C 1713.65,1168.53 1701.65,1194.2 1684.5,1217.5C 1666.44,1239.68 1644.77,1257.35 1619.5,1270.5C 1585.05,1287.25 1548.72,1293.59 1510.5,1289.5C 1507,1288.87 1503.5,1288.2 1500,1287.5C 1494.67,1297.5 1489.33,1307.5 1484,1317.5C 1478.14,1327.22 1472.31,1336.89 1466.5,1346.5C 1446.47,1375.26 1423.47,1401.76 1397.5,1426C 1390.05,1431.71 1383.05,1437.88 1376.5,1444.5C 1350.04,1464.91 1321.71,1482.58 1291.5,1497.5C 1284.95,1500.36 1278.45,1503.36 1272,1506.5C 1268.55,1500.71 1264.05,1495.88 1258.5,1492C 1240.53,1483.35 1222.53,1474.68 1204.5,1466C 1183.22,1454.72 1167.39,1438.22 1157,1416.5C 1152.29,1402.64 1147.96,1388.64 1144,1374.5C 1137.26,1354.87 1123.43,1345.2 1102.5,1345.5C 1082.47,1344.3 1068.31,1352.64 1060,1370.5C 1056.01,1382.98 1052.84,1395.64 1050.5,1408.5C 1044.45,1428.06 1033.12,1443.89 1016.5,1456C 1009.67,1460.58 1002.67,1464.92 995.5,1469C 978.559,1476.47 961.892,1484.47 945.5,1493C 940.117,1497.25 935.783,1502.42 932.5,1508.5C 927.476,1506.49 922.476,1504.49 917.5,1502.5C 819.795,1456.3 746.962,1384.63 699,1287.5C 664.044,1293.76 629.878,1290.76 596.5,1278.5C 541.394,1255.39 503.727,1215.73 483.5,1159.5C 468.109,1108.23 472.109,1058.56 495.5,1010.5C 515.604,974.396 543.937,946.729 580.5,927.5C 615.437,911.079 652.104,905.246 690.5,910C 755.914,919.472 821.581,926.639 887.5,931.5 Z"/></g>
<g><path style="opacity:1" fill="#f0e7ed" d="M 868.5,911.5 C 941.894,916.88 1015.23,919.88 1088.5,920.5C 1079.49,920.334 1070.49,920.5 1061.5,921C 1066.67,927.003 1072,932.837 1077.5,938.5C 1014.09,938.061 950.761,935.728 887.5,931.5C 880.806,925.31 874.14,918.81 867.5,912C 867.728,911.601 868.062,911.435 868.5,911.5 Z"/></g>
<g><path style="opacity:1" fill="#f4edf1" d="M 1275.5,915.5 C 1276.87,915.343 1278.21,915.51 1279.5,916C 1285.04,921.369 1290.37,926.869 1295.5,932.5C 1222.9,937.003 1150.24,939.003 1077.5,938.5C 1072,932.837 1066.67,927.003 1061.5,921C 1070.49,920.5 1079.49,920.334 1088.5,920.5C 1150.87,920.103 1213.2,918.436 1275.5,915.5 Z"/></g>
<g><path style="opacity:1" fill="#dfd6e3" d="M 256.5,925.5 C 264.078,931.572 271.244,938.239 278,945.5C 341.667,1012.5 405.333,1079.5 469,1146.5C 473.697,1151.74 478.53,1156.07 483.5,1159.5C 503.727,1215.73 541.394,1255.39 596.5,1278.5C 596.062,1278.43 595.728,1278.6 595.5,1279C 809.037,1502.37 1022.37,1725.87 1235.5,1949.5C 1200.09,1955.36 1164.42,1958.69 1128.5,1959.5C 833.17,1649.5 537.504,1339.84 241.5,1030.5C 244.172,995.128 249.172,960.128 256.5,925.5 Z"/></g>
<g><path style="opacity:1" fill="#efebf1" d="M 1114.5,976.5 C 1119.87,981.87 1124.87,987.537 1129.5,993.5C 1068.17,993.667 1006.83,993.5 945.5,993C 940.167,987.667 934.833,982.333 929.5,977C 991.166,976.5 1052.83,976.333 1114.5,976.5 Z"/></g>
<g><path style="opacity:1" fill="#0e202f" d="M 1377.5,994.5 C 1393.73,997.029 1404.56,1006.03 1410,1021.5C 1410.67,1072.83 1410.67,1124.17 1410,1175.5C 1409.34,1177.81 1408.84,1180.15 1408.5,1182.5C 1401.26,1196.63 1389.59,1203.97 1373.5,1204.5C 1187.83,1204.67 1002.17,1204.5 816.5,1204C 801.555,1200.06 792.389,1190.56 789,1175.5C 788.333,1124.17 788.333,1072.83 789,1021.5C 793.265,1007.57 802.432,998.735 816.5,995C 1003.5,994.5 1190.5,994.333 1377.5,994.5 Z"/></g>
<g><path style="opacity:1" fill="#ddd3e1" d="M 241.5,1030.5 C 537.504,1339.84 833.17,1649.5 1128.5,1959.5C 1090.59,1961.35 1052.92,1960.02 1015.5,1955.5C 1016.24,1955.63 1016.91,1955.46 1017.5,1955C 759.031,1683.53 500.198,1412.36 241,1141.5C 240.536,1142.09 240.369,1142.76 240.5,1143.5C 237.734,1105.96 238.067,1068.29 241.5,1030.5 Z"/></g>
<g><path style="opacity:1" fill="#037d46" d="M 921.5,1045.5 C 955.629,1042.16 977.462,1056.83 987,1089.5C 989.728,1122.56 975.228,1143.73 943.5,1153C 921.051,1156.41 902.885,1149.24 889,1131.5C 872.05,1102.48 876.217,1076.98 901.5,1055C 907.863,1050.98 914.53,1047.82 921.5,1045.5 Z"/></g>
<g><path style="opacity:1" fill="#037d46" d="M 1254.5,1045.5 C 1286.85,1042.39 1308.35,1056.05 1319,1086.5C 1323.44,1120.7 1309.27,1142.87 1276.5,1153C 1244.89,1156.45 1223.72,1143.29 1213,1113.5C 1208.11,1079.26 1221.94,1056.59 1254.5,1045.5 Z"/></g>
<g><path style="opacity:1" fill="#f2eff4" d="M 1114.5,976.5 C 1202.83,976.5 1291.17,976.5 1379.5,976.5C 1404.06,980.225 1420.23,993.892 1428,1017.5C 1429.64,1070.13 1429.97,1122.8 1429,1175.5C 1427.58,1182.92 1425.08,1189.92 1421.5,1196.5C 1417.19,1191.86 1412.86,1187.19 1408.5,1182.5C 1408.84,1180.15 1409.34,1177.81 1410,1175.5C 1410.67,1124.17 1410.67,1072.83 1410,1021.5C 1404.56,1006.03 1393.73,997.029 1377.5,994.5C 1295,993.501 1212.34,993.167 1129.5,993.5C 1124.87,987.537 1119.87,981.87 1114.5,976.5 Z"/></g>
<g><path style="opacity:0.991" fill="#d2c3d7" d="M 1959.5,1059.5 C 1972.83,1073.17 1986.17,1086.83 1999.5,1100.5C 2000.01,1164.94 1993.34,1228.61 1979.5,1291.5C 1967,1280.67 1956,1268.67 1946.5,1255.5C 1957.88,1190.64 1962.21,1125.31 1959.5,1059.5 Z"/></g>
<g><path style="opacity:1" fill="#06fc8c" d="M 924.5,1064.5 C 944.638,1062.18 958.805,1070.18 967,1088.5C 971.302,1109.4 963.802,1124.23 944.5,1133C 929.459,1137.43 916.625,1133.93 906,1122.5C 893.494,1104.4 894.994,1087.57 910.5,1072C 915.101,1069.2 919.768,1066.7 924.5,1064.5 Z"/></g>
<g><path style="opacity:1" fill="#06fb8c" d="M 1257.5,1064.5 C 1286,1062.84 1300.5,1076.17 1301,1104.5C 1295.18,1126.97 1280.68,1136.8 1257.5,1134C 1237.71,1127.26 1228.87,1113.43 1231,1092.5C 1234.92,1078.41 1243.75,1069.08 1257.5,1064.5 Z"/></g>
<g><path style="opacity:1" fill="#e2d5e0" d="M 609.5,993.5 C 627.905,992.723 645.572,995.89 662.5,1003C 667.702,1005.09 672.369,1007.93 676.5,1011.5C 667.542,1053.41 665.042,1095.74 669,1138.5C 670.328,1154.29 672.495,1169.95 675.5,1185.5C 675.167,1186.83 674.833,1188.17 674.5,1189.5C 632.202,1212.86 591.535,1210.36 552.5,1182C 512.12,1144.77 502.953,1100.93 525,1050.5C 543.877,1017.65 572.043,998.651 609.5,993.5 Z"/></g>
<g><path style="opacity:1" fill="#711003" d="M 608.5,1002.5 C 628.12,1001.66 646.787,1005.49 664.5,1014C 665.081,1014.89 665.415,1015.89 665.5,1017C 658.891,1054.56 656.724,1092.39 659,1130.5C 661.005,1148.54 663.005,1166.54 665,1184.5C 625.465,1203.74 588.631,1199.57 554.5,1172C 523.736,1141.11 515.236,1104.94 529,1063.5C 544.728,1029.06 571.228,1008.73 608.5,1002.5 Z"/></g>
<g><path style="opacity:1" fill="#dbd0e0" d="M 1015.5,1955.5 C 1009.16,1955.23 1002.83,1954.9 996.5,1954.5C 980.586,1952.56 964.92,1949.9 949.5,1946.5C 949.938,1946.57 950.272,1946.4 950.5,1946C 716,1700.17 481.5,1454.33 247,1208.5C 246.536,1209.09 246.369,1209.76 246.5,1210.5C 244.244,1194.63 242.244,1178.63 240.5,1162.5C 240.5,1156.17 240.5,1149.83 240.5,1143.5C 240.369,1142.76 240.536,1142.09 241,1141.5C 500.198,1412.36 759.031,1683.53 1017.5,1955C 1016.91,1955.46 1016.24,1955.63 1015.5,1955.5 Z"/></g>
<g><path style="opacity:1" fill="#f7f0f2" d="M 1570.5,993.5 C 1625.85,993.046 1663.02,1018.71 1682,1070.5C 1693.03,1121.77 1676.86,1161.93 1633.5,1191C 1596.85,1210.75 1560.52,1210.25 1524.5,1189.5C 1524.17,1188.17 1523.83,1186.83 1523.5,1185.5C 1531.42,1143.14 1533.59,1100.47 1530,1057.5C 1528.66,1041.96 1526.16,1026.63 1522.5,1011.5C 1528.86,1006.65 1535.86,1002.82 1543.5,1000C 1552.49,997.24 1561.49,995.074 1570.5,993.5 Z"/></g>
<g><path style="opacity:1" fill="#711003" d="M 1569.5,1002.5 C 1619.03,1000.99 1653.19,1022.99 1672,1068.5C 1682.9,1108.41 1673.73,1142.91 1644.5,1172C 1610.59,1199.31 1573.92,1203.64 1534.5,1185C 1533.9,1183.94 1533.57,1182.77 1533.5,1181.5C 1540.14,1143.11 1542.31,1104.44 1540,1065.5C 1538.4,1048.4 1536.4,1031.4 1534,1014.5C 1545.3,1008.57 1557.13,1004.57 1569.5,1002.5 Z"/></g>
<g><path style="opacity:1" fill="#f9f7fa" d="M 1720.5,1140.5 C 1720.35,1141.55 1720.52,1142.55 1721,1143.5C 1787.7,1213.7 1854.53,1283.7 1921.5,1353.5C 1913.22,1381.02 1903.55,1408.02 1892.5,1434.5C 1822.95,1362.4 1753.61,1290.07 1684.5,1217.5C 1701.65,1194.2 1713.65,1168.53 1720.5,1140.5 Z"/></g>
<g><path style="opacity:1" fill="#e1d7df" d="M 1379.5,976.5 C 1291.17,976.5 1202.83,976.5 1114.5,976.5C 1052.83,976.333 991.166,976.5 929.5,977C 934.833,982.333 940.167,987.667 945.5,993C 1006.83,993.5 1068.17,993.667 1129.5,993.5C 1212.34,993.167 1295,993.501 1377.5,994.5C 1190.5,994.333 1003.5,994.5 816.5,995C 802.432,998.735 793.265,1007.57 789,1021.5C 788.333,1072.83 788.333,1124.17 789,1175.5C 792.389,1190.56 801.555,1200.06 816.5,1204C 1002.17,1204.5 1187.83,1204.67 1373.5,1204.5C 1253.33,1205.33 1133,1205.83 1012.5,1206C 1017.27,1211.52 1022.27,1216.86 1027.5,1222C 1144.83,1222.5 1262.17,1222.67 1379.5,1222.5C 1286,1223.17 1192.33,1223.5 1098.5,1223.5C 1003.13,1223.66 907.799,1223.16 812.5,1222C 788.616,1215.41 774.449,1199.91 770,1175.5C 769.333,1124.83 769.333,1074.17 770,1023.5C 774.438,999.133 788.605,983.633 812.5,977C 907.799,975.839 1003.13,975.339 1098.5,975.5C 1192.33,975.5 1286,975.833 1379.5,976.5 Z"/></g>
<g><path style="opacity:1" fill="#eeeaf0" d="M 1408.5,1182.5 C 1412.86,1187.19 1417.19,1191.86 1421.5,1196.5C 1411.67,1211.75 1397.67,1220.42 1379.5,1222.5C 1262.17,1222.67 1144.83,1222.5 1027.5,1222C 1022.27,1216.86 1017.27,1211.52 1012.5,1206C 1133,1205.83 1253.33,1205.33 1373.5,1204.5C 1389.59,1203.97 1401.26,1196.63 1408.5,1182.5 Z"/></g>
<g><path style="opacity:1" fill="#d9cfdf" d="M 949.5,1946.5 C 924.668,1942.94 900.334,1937.6 876.5,1930.5C 876.938,1930.57 877.272,1930.4 877.5,1930C 671.302,1714.8 465.469,1499.3 260,1283.5C 259.601,1283.73 259.435,1284.06 259.5,1284.5C 253.459,1260.26 249.126,1235.59 246.5,1210.5C 246.369,1209.76 246.536,1209.09 247,1208.5C 481.5,1454.33 716,1700.17 950.5,1946C 950.272,1946.4 949.938,1946.57 949.5,1946.5 Z"/></g>
<g><path style="opacity:1" fill="#f7f5f8" d="M 1684.5,1217.5 C 1753.61,1290.07 1822.95,1362.4 1892.5,1434.5C 1880.48,1462.21 1867.14,1489.21 1852.5,1515.5C 1780.53,1440.7 1708.7,1365.7 1637,1290.5C 1630.94,1283.94 1625.1,1277.28 1619.5,1270.5C 1644.77,1257.35 1666.44,1239.68 1684.5,1217.5 Z"/></g>
<g><path style="opacity:0.989" fill="#d7c6da" d="M 1946.5,1255.5 C 1956,1268.67 1967,1280.67 1979.5,1291.5C 1957.18,1392.83 1918.85,1487.49 1864.5,1575.5C 1854.47,1566.14 1844.81,1556.47 1835.5,1546.5C 1840.9,1536.03 1846.57,1525.7 1852.5,1515.5C 1867.14,1489.21 1880.48,1462.21 1892.5,1434.5C 1903.55,1408.02 1913.22,1381.02 1921.5,1353.5C 1931.5,1321.17 1939.84,1288.51 1946.5,1255.5 Z"/></g>
<g><path style="opacity:1" fill="#f4f1f5" d="M 1619.5,1270.5 C 1625.1,1277.28 1630.94,1283.94 1637,1290.5C 1708.7,1365.7 1780.53,1440.7 1852.5,1515.5C 1846.57,1525.7 1840.9,1536.03 1835.5,1546.5C 1824.76,1562.97 1813.76,1579.3 1802.5,1595.5C 1704.83,1493.83 1607.5,1391.83 1510.5,1289.5C 1548.72,1293.59 1585.05,1287.25 1619.5,1270.5 Z"/></g>
<g><path style="opacity:1" fill="#e1d8e5" d="M 596.5,1278.5 C 629.878,1290.76 664.044,1293.76 699,1287.5C 746.962,1384.63 819.795,1456.3 917.5,1502.5C 917.062,1502.43 916.728,1502.6 916.5,1503C 1052.53,1644.7 1188.2,1786.7 1323.5,1929C 1324.79,1929.49 1326.13,1929.66 1327.5,1929.5C 1297.37,1938.06 1266.7,1944.73 1235.5,1949.5C 1022.37,1725.87 809.037,1502.37 595.5,1279C 595.728,1278.6 596.062,1278.43 596.5,1278.5 Z"/></g>
<g><path style="opacity:1" fill="#d7ccdd" d="M 876.5,1930.5 C 661.435,1869.95 493.268,1746.29 372,1559.5C 318.198,1474.62 280.698,1382.95 259.5,1284.5C 259.435,1284.06 259.601,1283.73 260,1283.5C 465.469,1499.3 671.302,1714.8 877.5,1930C 877.272,1930.4 876.938,1930.57 876.5,1930.5 Z"/></g>
<g><path style="opacity:1" fill="#f2eef4" d="M 1510.5,1289.5 C 1607.5,1391.83 1704.83,1493.83 1802.5,1595.5C 1788.95,1615.05 1774.28,1633.72 1758.5,1651.5C 1661.14,1549.81 1563.81,1448.14 1466.5,1346.5C 1472.31,1336.89 1478.14,1327.22 1484,1317.5C 1489.33,1307.5 1494.67,1297.5 1500,1287.5C 1503.5,1288.2 1507,1288.87 1510.5,1289.5 Z"/></g>
<g><path style="opacity:1" fill="#e9e2eb" d="M 1291.5,1497.5 C 1389.83,1601.16 1488.5,1704.5 1587.5,1807.5C 1554.69,1830.92 1520.02,1851.58 1483.5,1869.5C 1482.45,1869.65 1481.45,1869.48 1480.5,1869C 1374.26,1758.6 1268.6,1647.77 1163.5,1536.5C 1196.78,1531.6 1229.11,1523.1 1260.5,1511C 1262.16,1510.27 1262.66,1509.11 1262,1507.5C 1259.13,1504.3 1255.96,1501.46 1252.5,1499C 1232.4,1490.12 1212.74,1480.45 1193.5,1470C 1173.4,1458.23 1158.56,1441.73 1149,1420.5C 1143.48,1403.41 1137.81,1386.41 1132,1369.5C 1128.4,1363.9 1123.56,1359.73 1117.5,1357C 1108.22,1355.48 1098.89,1355.15 1089.5,1356C 1078.94,1358.22 1071.78,1364.39 1068,1374.5C 1064.69,1388.23 1061.19,1401.9 1057.5,1415.5C 1054.83,1413.5 1052.5,1411.17 1050.5,1408.5C 1052.84,1395.64 1056.01,1382.98 1060,1370.5C 1068.31,1352.64 1082.47,1344.3 1102.5,1345.5C 1123.43,1345.2 1137.26,1354.87 1144,1374.5C 1147.96,1388.64 1152.29,1402.64 1157,1416.5C 1167.39,1438.22 1183.22,1454.72 1204.5,1466C 1222.53,1474.68 1240.53,1483.35 1258.5,1492C 1264.05,1495.88 1268.55,1500.71 1272,1506.5C 1278.45,1503.36 1284.95,1500.36 1291.5,1497.5 Z"/></g>
<g><path style="opacity:1" fill="#efeaf1" d="M 1466.5,1346.5 C 1563.81,1448.14 1661.14,1549.81 1758.5,1651.5C 1730.26,1686.41 1698.92,1718.41 1664.5,1747.5C 1664.63,1746.76 1664.46,1746.09 1664,1745.5C 1567.6,1645.6 1471.76,1545.27 1376.5,1444.5C 1383.05,1437.88 1390.05,1431.71 1397.5,1426C 1423.47,1401.76 1446.47,1375.26 1466.5,1346.5 Z"/></g>
<g><path style="opacity:1" fill="#f02106" d="M 1163.5,1536.5 C 1105.99,1544.86 1048.99,1542.2 992.5,1528.5C 975.108,1524.26 958.108,1518.59 941.5,1511.5C 944.306,1505.53 948.639,1501.03 954.5,1498C 973.442,1489.53 992.108,1480.53 1010.5,1471C 1032.89,1458.11 1048.56,1439.61 1057.5,1415.5C 1061.19,1401.9 1064.69,1388.23 1068,1374.5C 1071.78,1364.39 1078.94,1358.22 1089.5,1356C 1098.89,1355.15 1108.22,1355.48 1117.5,1357C 1123.56,1359.73 1128.4,1363.9 1132,1369.5C 1137.81,1386.41 1143.48,1403.41 1149,1420.5C 1158.56,1441.73 1173.4,1458.23 1193.5,1470C 1212.74,1480.45 1232.4,1490.12 1252.5,1499C 1255.96,1501.46 1259.13,1504.3 1262,1507.5C 1262.66,1509.11 1262.16,1510.27 1260.5,1511C 1229.11,1523.1 1196.78,1531.6 1163.5,1536.5 Z"/></g>
<g><path style="opacity:0.985" fill="#f0dced" d="M 199.5,1120.5 C 213.167,1134.5 226.833,1148.5 240.5,1162.5C 242.244,1178.63 244.244,1194.63 246.5,1210.5C 249.126,1235.59 253.459,1260.26 259.5,1284.5C 280.698,1382.95 318.198,1474.62 372,1559.5C 493.268,1746.29 661.435,1869.95 876.5,1930.5C 900.334,1937.6 924.668,1942.94 949.5,1946.5C 964.92,1949.9 980.586,1952.56 996.5,1954.5C 1009.83,1968.83 1023.17,1983.17 1036.5,1997.5C 834.589,1982.16 657.589,1908.66 505.5,1777C 337.147,1626.5 237.314,1438.67 206,1213.5C 202.127,1182.62 199.961,1151.62 199.5,1120.5 Z"/></g>
<g><path style="opacity:1" fill="#ebe6ee" d="M 1376.5,1444.5 C 1471.76,1545.27 1567.6,1645.6 1664,1745.5C 1664.46,1746.09 1664.63,1746.76 1664.5,1747.5C 1658.83,1752.83 1653.17,1758.17 1647.5,1763.5C 1635.06,1772.76 1622.73,1782.26 1610.5,1792C 1603.15,1797.67 1595.48,1802.84 1587.5,1807.5C 1488.5,1704.5 1389.83,1601.16 1291.5,1497.5C 1321.71,1482.58 1350.04,1464.91 1376.5,1444.5 Z"/></g>
<g><path style="opacity:1" fill="#e3dbe6" d="M 1050.5,1408.5 C 1052.5,1411.17 1054.83,1413.5 1057.5,1415.5C 1048.56,1439.61 1032.89,1458.11 1010.5,1471C 992.108,1480.53 973.442,1489.53 954.5,1498C 948.639,1501.03 944.306,1505.53 941.5,1511.5C 958.108,1518.59 975.108,1524.26 992.5,1528.5C 991.761,1528.37 991.094,1528.54 990.5,1529C 1114.37,1659.03 1238.37,1788.87 1362.5,1918.5C 1350.97,1922.34 1339.31,1926.01 1327.5,1929.5C 1326.13,1929.66 1324.79,1929.49 1323.5,1929C 1188.2,1786.7 1052.53,1644.7 916.5,1503C 916.728,1502.6 917.062,1502.43 917.5,1502.5C 922.476,1504.49 927.476,1506.49 932.5,1508.5C 935.783,1502.42 940.117,1497.25 945.5,1493C 961.892,1484.47 978.559,1476.47 995.5,1469C 1002.67,1464.92 1009.67,1460.58 1016.5,1456C 1033.12,1443.89 1044.45,1428.06 1050.5,1408.5 Z"/></g>
<g><path style="opacity:1" fill="#e5dee8" d="M 992.5,1528.5 C 1048.99,1542.2 1105.99,1544.86 1163.5,1536.5C 1268.6,1647.77 1374.26,1758.6 1480.5,1869C 1481.45,1869.48 1482.45,1869.65 1483.5,1869.5C 1448.63,1887.27 1412.63,1902.27 1375.5,1914.5C 1371.3,1916.23 1366.97,1917.57 1362.5,1918.5C 1238.37,1788.87 1114.37,1659.03 990.5,1529C 991.094,1528.54 991.761,1528.37 992.5,1528.5 Z"/></g>
<g><path style="opacity:0.987" fill="#ddccdf" d="M 1835.5,1546.5 C 1844.81,1556.47 1854.47,1566.14 1864.5,1575.5C 1812.77,1657.59 1749.44,1729.92 1674.5,1792.5C 1665.13,1783.13 1656.13,1773.47 1647.5,1763.5C 1653.17,1758.17 1658.83,1752.83 1664.5,1747.5C 1698.92,1718.41 1730.26,1686.41 1758.5,1651.5C 1774.28,1633.72 1788.95,1615.05 1802.5,1595.5C 1813.76,1579.3 1824.76,1562.97 1835.5,1546.5 Z"/></g>
<g><path style="opacity:0.987" fill="#e3d1e4" d="M 1647.5,1763.5 C 1656.13,1773.47 1665.13,1783.13 1674.5,1792.5C 1594.37,1859.43 1504.7,1910.77 1405.5,1946.5C 1395.16,1936.16 1385.16,1925.49 1375.5,1914.5C 1412.63,1902.27 1448.63,1887.27 1483.5,1869.5C 1520.02,1851.58 1554.69,1830.92 1587.5,1807.5C 1595.48,1802.84 1603.15,1797.67 1610.5,1792C 1622.73,1782.26 1635.06,1772.76 1647.5,1763.5 Z"/></g>
<g><path style="opacity:0.991" fill="#ead7e8" d="M 1375.5,1914.5 C 1385.16,1925.49 1395.16,1936.16 1405.5,1946.5C 1286.22,1989.62 1163.22,2006.62 1036.5,1997.5C 1023.17,1983.17 1009.83,1968.83 996.5,1954.5C 1002.83,1954.9 1009.16,1955.23 1015.5,1955.5C 1052.92,1960.02 1090.59,1961.35 1128.5,1959.5C 1164.42,1958.69 1200.09,1955.36 1235.5,1949.5C 1266.7,1944.73 1297.37,1938.06 1327.5,1929.5C 1339.31,1926.01 1350.97,1922.34 1362.5,1918.5C 1366.97,1917.57 1371.3,1916.23 1375.5,1914.5 Z"/></g>
</svg>
